<svg width="52" height="46" viewBox="0 0 52 46" fill="none" xmlns="http://www.w3.org/2000/svg">
<path d="M33.9608 18.6939H4.50088C2.92968 18.6939 1.63672 17.2742 1.63672 15.549V9.58278C1.63672 8.36077 2.40591 7.12081 3.43701 6.67155L18.167 0.202169C18.7889 -0.0673898 19.6728 -0.0673898 20.2947 0.202169L35.0246 6.67155C36.0557 7.12081 36.8249 8.37875 36.8249 9.58278V15.549C36.8249 17.2742 35.532 18.6939 33.9608 18.6939ZM19.2308 2.68212C19.1654 2.68212 19.0999 2.68203 19.0672 2.7L4.35353 9.16949C4.25533 9.2234 4.09171 9.45698 4.09171 9.58278V15.549C4.09171 15.8006 4.27174 15.9983 4.50088 15.9983H33.9608C34.1899 15.9983 34.3699 15.8006 34.3699 15.549V9.58278C34.3699 9.45698 34.2227 9.2234 34.1081 9.16949L19.3782 2.7C19.3454 2.68203 19.2963 2.68212 19.2308 2.68212Z" fill="#222222"/>
<path d="M6.13741 31.2733C5.46638 31.2733 4.90991 30.6623 4.90991 29.9255V17.3461C4.90991 16.6093 5.46638 15.9983 6.13741 15.9983C6.80844 15.9983 7.3649 16.6093 7.3649 17.3461V29.9255C7.3649 30.6623 6.80844 31.2733 6.13741 31.2733Z" fill="#222222"/>
<path d="M12.684 31.2733C12.013 31.2733 11.4565 30.6623 11.4565 29.9255V17.3461C11.4565 16.6093 12.013 15.9983 12.684 15.9983C13.3551 15.9983 13.9115 16.6093 13.9115 17.3461V29.9255C13.9115 30.6623 13.3551 31.2733 12.684 31.2733Z" fill="#222222"/>
<path d="M19.2307 31.2733C18.5596 31.2733 18.0032 30.6623 18.0032 29.9255V17.3461C18.0032 16.6093 18.5596 15.9983 19.2307 15.9983C19.9017 15.9983 20.4582 16.6093 20.4582 17.3461V29.9255C20.4582 30.6623 19.9017 31.2733 19.2307 31.2733Z" fill="#222222"/>
<path d="M25.7775 31.2733C25.1065 31.2733 24.55 30.6623 24.55 29.9255V17.3461C24.55 16.6093 25.1065 15.9983 25.7775 15.9983C26.4486 15.9983 27.005 16.6093 27.005 17.3461V29.9255C27.005 30.6623 26.4486 31.2733 25.7775 31.2733Z" fill="#222222"/>
<path d="M32.3239 31.2733C31.6529 31.2733 31.0964 30.6623 31.0964 29.9255V17.3461C31.0964 16.6093 31.6529 15.9983 32.3239 15.9983C32.995 15.9983 33.5514 16.6093 33.5514 17.3461V29.9255C33.5514 30.6623 32.995 31.2733 32.3239 31.2733Z" fill="#222222"/>
<path d="M35.5974 38.4615H2.86421C2.19318 38.4615 1.63672 37.8505 1.63672 37.1137V31.7226C1.63672 29.9974 2.92968 28.5777 4.50088 28.5777H33.9608C35.532 28.5777 36.8249 29.9974 36.8249 31.7226V37.1137C36.8249 37.8505 36.2685 38.4615 35.5974 38.4615ZM4.09171 35.7659H34.3699V31.7226C34.3699 31.471 34.1899 31.2733 33.9608 31.2733H4.50088C4.27174 31.2733 4.09171 31.471 4.09171 31.7226V35.7659Z" fill="#222222"/>
<path d="M37.234 38.4616H1.2275C0.556465 38.4616 0 37.8506 0 37.1138C0 36.377 0.556465 35.766 1.2275 35.766H37.234C37.9051 35.766 38.4615 36.377 38.4615 37.1138C38.4615 37.8506 37.9051 38.4616 37.234 38.4616Z" fill="#222222"/>
<path d="M19.2308 14.2012C17.2014 14.2012 15.5483 12.3862 15.5483 10.1579C15.5483 7.9295 17.2014 6.11447 19.2308 6.11447C21.2603 6.11447 22.9133 7.9295 22.9133 10.1579C22.9133 12.3862 21.2603 14.2012 19.2308 14.2012ZM19.2308 8.81006C18.5598 8.81006 18.0033 9.42106 18.0033 10.1579C18.0033 10.8947 18.5598 11.5057 19.2308 11.5057C19.9019 11.5057 20.4583 10.8947 20.4583 10.1579C20.4583 9.42106 19.9019 8.81006 19.2308 8.81006Z" fill="#222222"/>
<path d="M48.9532 19.2433L41.0676 16.2304C40.2504 15.9232 38.917 15.9232 38.0998 16.2304L30.2142 19.2433C28.6944 19.8283 27.4614 21.6419 27.4614 23.2946V35.1415C27.4614 36.3262 28.2213 37.8911 29.1532 38.5932L37.0388 44.6043C38.4295 45.672 40.7092 45.672 42.0999 44.6043L49.9855 38.5932C50.9174 37.8765 51.6773 36.3262 51.6773 35.1415V23.2946C51.6916 21.6419 50.4586 19.8283 48.9532 19.2433ZM44.5659 27.4337L38.4009 33.7228C38.1858 33.9422 37.9134 34.0445 37.641 34.0445C37.3686 34.0445 37.0961 33.9422 36.8811 33.7228L34.5871 31.3534C34.1713 30.9293 34.1713 30.2272 34.5871 29.8031C35.0029 29.3789 35.6911 29.3789 36.1069 29.8031L37.6553 31.3827L43.0605 25.8687C43.4763 25.4446 44.1645 25.4446 44.5803 25.8687C44.996 26.2929 44.996 27.0095 44.5659 27.4337Z" fill="#EA5B0C"/>
</svg>
