<svg width="52" height="45" viewBox="0 0 52 45" fill="none" xmlns="http://www.w3.org/2000/svg">
<path d="M30.8055 21.0101H4.52012C4.14227 21.0101 3.79727 20.7928 3.56727 20.4017C3.33728 20.0324 3.2387 19.5109 3.32085 19.0329L5.17725 7.30026C5.7851 3.49801 7.01723 -6.10352e-05 11.8965 -6.10352e-05H23.4456C28.3248 -6.10352e-05 29.557 3.51974 30.1648 7.30026L32.0212 19.0546C32.1034 19.5326 32.0048 20.0324 31.7748 20.4235C31.5284 20.7928 31.1834 21.0101 30.8055 21.0101ZM6.03153 17.751H29.2777L27.7334 7.9738C27.2734 5.12755 26.7313 3.25901 23.4292 3.25901H11.8965C8.59435 3.25901 8.05222 5.12755 7.59222 7.9738L6.03153 17.751Z" fill="#222222"/>
<path d="M4.51998 14.492H2.87715C2.20358 14.492 1.64502 13.7532 1.64502 12.8624C1.64502 11.9716 2.20358 11.2329 2.87715 11.2329H4.51998C5.19355 11.2329 5.75211 11.9716 5.75211 12.8624C5.75211 13.7532 5.19355 14.492 4.51998 14.492Z" fill="#222222"/>
<path d="M32.4485 14.492H30.8056C30.1321 14.492 29.5735 13.7532 29.5735 12.8624C29.5735 11.9716 30.1321 11.2329 30.8056 11.2329H32.4485C33.122 11.2329 33.6806 11.9716 33.6806 12.8624C33.6806 13.7532 33.122 14.492 32.4485 14.492Z" fill="#222222"/>
<path d="M20.1274 7.97379H15.1989C14.5254 7.97379 13.9668 7.23507 13.9668 6.34426C13.9668 5.45344 14.5254 4.71472 15.1989 4.71472H20.1274C20.801 4.71472 21.3596 5.45344 21.3596 6.34426C21.3596 7.23507 20.801 7.97379 20.1274 7.97379Z" fill="#222222"/>
<path d="M30.74 44.91H27.6515C24.9901 44.91 24.4808 42.8894 24.1523 41.564L23.8237 40.2604C23.3965 38.6091 23.3473 38.3919 21.8687 38.3919H13.4574C11.9788 38.3919 11.8803 38.7612 11.5024 40.2604L11.1738 41.564C10.8288 42.9111 10.336 44.91 7.6746 44.91H4.58606C3.28822 44.91 2.03967 44.193 1.16896 42.9328C0.314687 41.6944 -0.0960228 40.0431 0.0189758 38.3919L0.938965 25.16C1.18539 21.575 1.90824 17.7511 7.18175 17.7511H28.1443C33.4179 17.7511 34.1243 21.575 34.3871 25.16L35.3071 38.3919C35.4221 40.0431 35.0114 41.6944 34.1571 42.9328C33.2864 44.193 32.0379 44.91 30.74 44.91ZM13.4574 35.1328H21.8687C24.8587 35.1328 25.5651 36.8927 26.1565 39.1958L26.5015 40.5429C26.7808 41.6509 26.7808 41.6727 27.6679 41.6727H30.7565C31.3643 41.6727 31.9393 41.3468 32.35 40.7601C32.7443 40.1952 32.925 39.4782 32.8757 38.7178L31.9557 25.4859C31.7422 22.5528 31.4793 21.0319 28.1772 21.0319H7.18175C3.86321 21.0319 3.60036 22.5528 3.40322 25.4859L2.48323 38.7178C2.43395 39.4782 2.61466 40.1952 3.00894 40.7601C3.40322 41.3468 3.99464 41.6727 4.60249 41.6727H7.69102C8.57816 41.6727 8.57816 41.6509 8.85744 40.5646L9.18601 39.2392C9.59672 37.501 10.2046 35.1328 13.4574 35.1328Z" fill="#222222"/>
<path d="M12.7344 29.701H7.80586C7.1323 29.701 6.57373 28.9623 6.57373 28.0715C6.57373 27.1806 7.1323 26.4419 7.80586 26.4419H12.7344C13.4079 26.4419 13.9665 27.1806 13.9665 28.0715C13.9665 28.9623 13.4079 29.701 12.7344 29.701Z" fill="white"/>
<path d="M27.5195 29.701H22.591C21.9175 29.701 21.3589 28.9623 21.3589 28.0715C21.3589 27.1806 21.9175 26.4419 22.591 26.4419H27.5195C28.1931 26.4419 28.7517 27.1806 28.7517 28.0715C28.7517 28.9623 28.1931 29.701 27.5195 29.701Z" fill="white"/>
<path d="M49.2759 17.6408L41.3904 14.6279C40.5731 14.3208 39.2398 14.3208 38.4225 14.6279L30.537 17.6408C29.0172 18.2259 27.7842 20.0395 27.7842 21.6922V33.5391C27.7842 34.7237 28.5441 36.2887 29.476 36.9907L37.3616 43.0019C38.7523 44.0696 41.0319 44.0696 42.4227 43.0019L50.3082 36.9907C51.2401 36.2741 52 34.7237 52 33.5391V21.6922C52.0144 20.0395 50.7813 18.2259 49.2759 17.6408ZM44.8887 25.8313L38.7236 32.1204C38.5085 32.3397 38.2361 32.4421 37.9637 32.4421C37.6913 32.4421 37.4189 32.3397 37.2038 32.1204L34.9099 29.751C34.4941 29.3268 34.4941 28.6248 34.9099 28.2007C35.3256 27.7765 36.0138 27.7765 36.4296 28.2007L37.9781 29.7802L43.3833 24.2663C43.799 23.8422 44.4872 23.8422 44.903 24.2663C45.3188 24.6905 45.3188 25.4071 44.8887 25.8313Z" fill="#EA5B0C"/>
</svg>
