<svg width="52" height="49" viewBox="0 0 52 49" fill="none" xmlns="http://www.w3.org/2000/svg">
<path d="M17.4503 22.1084C17.2236 22.0857 16.9515 22.0857 16.7021 22.1084C11.3066 21.9271 7.02197 17.5064 7.02197 12.0655C7.02197 6.51134 11.5107 1.99997 17.0875 1.99997C22.6417 1.99997 27.1531 6.51134 27.1531 12.0655C27.1304 17.5064 22.8458 21.9271 17.4503 22.1084Z" stroke="#222222" stroke-width="3.40053" stroke-linecap="round" stroke-linejoin="round"/>
<path d="M6.11464 30.4737C0.628454 34.1463 0.628454 40.1312 6.11464 43.7811C12.3489 47.9524 22.5732 47.9524 28.8075 43.7811C34.2937 40.1086 34.2937 34.1236 28.8075 30.4737C22.5959 26.3251 12.3716 26.3251 6.11464 30.4737Z" stroke="#222222" stroke-width="3.40053" stroke-linecap="round" stroke-linejoin="round"/>
<path d="M49.2759 20.6408L41.3904 17.6279C40.5731 17.3208 39.2398 17.3208 38.4225 17.6279L30.537 20.6408C29.0172 21.2259 27.7842 23.0395 27.7842 24.6922V36.5391C27.7842 37.7237 28.5441 39.2887 29.476 39.9907L37.3616 46.0019C38.7523 47.0696 41.0319 47.0696 42.4227 46.0019L50.3082 39.9907C51.2401 39.2741 52 37.7237 52 36.5391V24.6922C52.0144 23.0395 50.7813 21.2259 49.2759 20.6408ZM44.8887 28.8313L38.7236 35.1204C38.5085 35.3397 38.2361 35.4421 37.9637 35.4421C37.6913 35.4421 37.4189 35.3397 37.2038 35.1204L34.9099 32.751C34.4941 32.3268 34.4941 31.6248 34.9099 31.2007C35.3256 30.7765 36.0138 30.7765 36.4296 31.2007L37.9781 32.7802L43.3833 27.2663C43.799 26.8422 44.4872 26.8422 44.903 27.2663C45.3188 27.6905 45.3188 28.4071 44.8887 28.8313Z" fill="#EA5B0C"/>
</svg>
