<svg width="36" height="36" viewBox="0 0 36 36" fill="none" xmlns="http://www.w3.org/2000/svg">
<rect x="1.34628" y="1.3558" width="33.2091" height="33.2091" rx="16.6045" stroke="#ADADAD" stroke-width="0.976737"/>
<g clip-path="url(#clip0_2056_2576)">
<path d="M25.475 23.1683C25.193 23.8197 24.8593 24.4194 24.4725 24.9707C23.9454 25.7223 23.5137 26.2426 23.1811 26.5315C22.6655 27.0057 22.113 27.2486 21.5214 27.2624C21.0966 27.2624 20.5844 27.1415 19.9883 26.8963C19.3901 26.6523 18.8403 26.5315 18.3377 26.5315C17.8105 26.5315 17.2452 26.6523 16.6405 26.8963C16.0348 27.1415 15.5469 27.2693 15.1738 27.2819C14.6065 27.3061 14.041 27.0563 13.4766 26.5315C13.1163 26.2172 12.6657 25.6786 12.1259 24.9154C11.5467 24.1006 11.0705 23.1556 10.6974 22.0782C10.298 20.9145 10.0977 19.7877 10.0977 18.6968C10.0977 17.4471 10.3677 16.3694 10.9085 15.4662C11.3336 14.7407 11.8991 14.1684 12.6068 13.7483C13.3145 13.3282 14.0793 13.1141 14.9028 13.1004C15.3534 13.1004 15.9444 13.2398 16.6787 13.5137C17.411 13.7886 17.8812 13.928 18.0873 13.928C18.2414 13.928 18.7638 13.765 19.6492 13.4401C20.4866 13.1388 21.1933 13.014 21.7722 13.0631C23.341 13.1898 24.5196 13.8082 25.3035 14.9224C23.9004 15.7725 23.2064 16.9632 23.2202 18.4907C23.2329 19.6805 23.6645 20.6706 24.5128 21.4567C24.8972 21.8216 25.3265 22.1036 25.8042 22.3038C25.7006 22.6042 25.5913 22.892 25.475 23.1683H25.475ZM21.877 9.00976C21.877 9.94232 21.5363 10.813 20.8572 11.619C20.0377 12.5771 19.0465 13.1307 17.9716 13.0433C17.9572 12.9261 17.95 12.8081 17.9499 12.69C17.9499 11.7947 18.3397 10.8366 19.0317 10.0533C19.3773 9.65665 19.8167 9.32683 20.3496 9.06374C20.8814 8.80458 21.3844 8.66123 21.8574 8.63672C21.8713 8.76138 21.877 8.88605 21.877 9.00973L21.877 9.00976Z" fill="black"/>
</g>
<defs>
<clipPath id="clip0_2056_2576">
<rect width="18.6468" height="18.6468" fill="white" transform="translate(8.62744 8.63696)"/>
</clipPath>
</defs>
</svg>
