<svg width="46" height="46" viewBox="0 0 46 46" fill="none" xmlns="http://www.w3.org/2000/svg">
<path d="M22.9997 25.4916C22.7505 25.4916 22.5013 25.4342 22.2713 25.3L5.34718 15.5058C4.65718 15.1033 4.42714 14.2216 4.82964 13.5316C5.23214 12.8416 6.09464 12.6116 6.8038 13.0141L22.9997 22.3866L39.0996 13.0716C39.7896 12.6691 40.6713 12.9183 41.0738 13.5892C41.4763 14.2792 41.2272 15.1608 40.5563 15.5633L23.7472 25.3C23.498 25.415 23.2488 25.4916 22.9997 25.4916Z" fill="#EA5B0C"/>
<path d="M23 42.8568C22.2142 42.8568 21.5625 42.2051 21.5625 41.4193V24.0351C21.5625 23.2493 22.2142 22.5976 23 22.5976C23.7858 22.5976 24.4375 23.2493 24.4375 24.0351V41.4193C24.4375 42.2051 23.7858 42.8568 23 42.8568Z" fill="#EA5B0C"/>
<path d="M23.0002 43.6041C21.3135 43.6041 19.646 43.24 18.3235 42.5116L8.08853 36.8192C5.30936 35.2858 3.14355 31.5866 3.14355 28.405V17.5758C3.14355 14.3941 5.30936 10.7142 8.08853 9.16169L18.3235 3.48831C20.9494 2.03165 25.051 2.03165 27.6769 3.48831L37.9119 9.18076C40.691 10.7141 42.8568 14.4133 42.8568 17.595V28.4242C42.8568 31.6058 40.691 35.2857 37.9119 36.8382L27.6769 42.5116C26.3544 43.24 24.6869 43.6041 23.0002 43.6041ZM23.0002 5.2708C21.7927 5.2708 20.6044 5.51997 19.7227 5.99914L9.48772 11.6916C7.64772 12.7266 6.01855 15.4675 6.01855 17.595V28.4242C6.01855 30.5325 7.64772 33.2924 9.48772 34.3274L19.7227 40.02C21.4669 40.9975 24.5335 40.9975 26.2777 40.02L36.5127 34.3274C38.3527 33.2924 39.9818 30.5517 39.9818 28.4242V17.595C39.9818 15.4866 38.3527 12.7266 36.5127 11.6916L26.2777 5.99914C25.396 5.51997 24.2077 5.2708 23.0002 5.2708Z" fill="#EA5B0C"/>
<path d="M32.5838 26.8142C31.7979 26.8142 31.1463 26.1626 31.1463 25.3767V19.2051L13.6663 9.12344C12.9763 8.72094 12.7462 7.83924 13.1487 7.1684C13.5512 6.4784 14.4138 6.24837 15.1038 6.65087L33.2929 17.1543C33.7337 17.4034 34.0213 17.8825 34.0213 18.4V25.4151C34.0213 26.1626 33.3696 26.8142 32.5838 26.8142Z" fill="#EA5B0C"/>
</svg>
