<svg width="101" height="100" viewBox="0 0 101 100" fill="none" xmlns="http://www.w3.org/2000/svg">
<circle cx="50.1965" cy="50" r="50" fill="#EA5B0C"/>
<path d="M50.1966 72.5208C48.7591 72.5208 47.4049 71.7917 46.4466 70.5208L43.3216 66.3542C43.2591 66.2708 43.0091 66.1667 42.9049 66.1458H41.8633C33.1758 66.1458 27.8008 63.7917 27.8008 52.0833V41.6667C27.8008 32.4583 32.6549 27.6042 41.8633 27.6042H58.5299C67.7383 27.6042 72.5924 32.4583 72.5924 41.6667V52.0833C72.5924 61.2917 67.7383 66.1458 58.5299 66.1458H57.4883C57.3216 66.1458 57.1758 66.2292 57.0716 66.3542L53.9466 70.5208C52.9883 71.7917 51.6341 72.5208 50.1966 72.5208ZM41.8633 30.7292C34.4049 30.7292 30.9258 34.2083 30.9258 41.6667V52.0833C30.9258 61.5 34.1549 63.0208 41.8633 63.0208H42.9049C43.9674 63.0208 45.1758 63.625 45.8216 64.4792L48.9466 68.6458C49.6758 69.6042 50.7174 69.6042 51.4466 68.6458L54.5716 64.4792C55.2591 63.5625 56.3424 63.0208 57.4883 63.0208H58.5299C65.9883 63.0208 69.4674 59.5417 69.4674 52.0833V41.6667C69.4674 34.2083 65.9883 30.7292 58.5299 30.7292H41.8633Z" fill="white"/>
<path d="M60.6131 43.2292H39.7798C38.9256 43.2292 38.2173 42.5208 38.2173 41.6667C38.2173 40.8125 38.9256 40.1042 39.7798 40.1042H60.6131C61.4673 40.1042 62.1756 40.8125 62.1756 41.6667C62.1756 42.5208 61.4673 43.2292 60.6131 43.2292Z" fill="white"/>
<path d="M52.2798 53.6458H39.7798C38.9256 53.6458 38.2173 52.9375 38.2173 52.0833C38.2173 51.2292 38.9256 50.5208 39.7798 50.5208H52.2798C53.134 50.5208 53.8423 51.2292 53.8423 52.0833C53.8423 52.9375 53.134 53.6458 52.2798 53.6458Z" fill="white"/>
</svg>
