<svg width="41" height="44" viewBox="0 0 41 44" fill="none" xmlns="http://www.w3.org/2000/svg">
<path d="M20.1911 0.477783C20.9364 0.477783 21.6711 0.51816 22.3952 0.598912C22.6544 0.627597 22.9054 0.707054 23.1339 0.832748C23.3624 0.958443 23.5639 1.12791 23.7269 1.33148C23.8899 1.53505 24.0113 1.76873 24.0839 2.01918C24.1566 2.26963 24.1793 2.53194 24.1506 2.79115C24.1219 3.05035 24.0425 3.30137 23.9168 3.52986C23.7911 3.75836 23.6216 3.95986 23.418 4.12286C23.2145 4.28587 22.9808 4.40718 22.7303 4.47987C22.4799 4.55256 22.2176 4.57521 21.9584 4.54653C18.686 4.18045 15.3807 4.84029 12.4997 6.43479C9.61875 8.0293 7.30445 10.4796 5.87694 13.4469C4.44942 16.4142 3.97925 19.7517 4.53146 22.9979C5.08367 26.244 6.63096 29.2384 8.95932 31.5668C11.2877 33.8951 14.282 35.4424 17.5282 35.9946C20.7743 36.5468 24.1119 36.0766 27.0792 34.6491C30.0464 33.2216 32.4968 30.9073 34.0913 28.0263C35.6858 25.1454 36.3456 21.8401 35.9795 18.5677C35.9509 18.3085 35.9735 18.0462 36.0462 17.7957C36.1189 17.5453 36.2402 17.3116 36.4032 17.108C36.7324 16.6969 37.2114 16.4334 37.7349 16.3755C38.2584 16.3175 38.7835 16.4699 39.1946 16.7991C39.3982 16.9621 39.5676 17.1636 39.6933 17.3921C39.819 17.6206 39.8985 17.8716 39.9272 18.1308C40.0066 18.855 40.047 19.5897 40.0483 20.335C40.0483 31.3021 31.1582 40.1922 20.1911 40.1922C9.22394 40.1922 0.333862 31.3021 0.333862 20.335C0.333862 9.36786 9.22394 0.477783 20.1911 0.477783ZM20.1275 12.1479C20.2584 12.6576 20.1815 13.1985 19.9138 13.6517C19.6461 14.1048 19.2095 14.4331 18.6998 14.5645C17.2996 14.9313 16.0807 15.795 15.2705 16.9944C14.4604 18.1939 14.1143 19.6471 14.2969 21.083C14.4794 22.5189 15.1782 23.8393 16.2628 24.7978C17.3474 25.7563 18.7437 26.2875 20.1911 26.2922C21.5122 26.2927 22.796 25.8541 23.8406 25.0453C24.8852 24.2365 25.6313 23.1034 25.9616 21.8243C26.1023 21.3246 26.4332 20.8999 26.8833 20.6411C27.3333 20.3824 27.8668 20.3102 28.3695 20.44C28.8721 20.5698 29.304 20.8913 29.5724 21.3357C29.8409 21.78 29.9248 22.3118 29.8059 22.8171C29.1968 25.1522 27.7583 27.1857 25.7593 28.5376C23.7604 29.8895 21.3376 30.4674 18.9436 30.1633C16.5496 29.8593 14.3482 28.6941 12.7506 26.8854C11.153 25.0767 10.2686 22.7482 10.2625 20.335C10.2621 18.1336 10.9934 15.9945 12.3414 14.2541C13.6893 12.5136 15.5774 11.2705 17.7089 10.7201C17.9615 10.655 18.2244 10.6403 18.4826 10.6769C18.7409 10.7134 18.9894 10.8004 19.214 10.933C19.4386 11.0656 19.6348 11.2411 19.7916 11.4496C19.9483 11.658 20.0625 11.8953 20.1275 12.1479ZM33.1062 0.72997C33.4687 0.880247 33.7785 1.13453 33.9965 1.46073C34.2146 1.78693 34.3311 2.17042 34.3314 2.56279V6.19666H37.9633C38.356 6.19674 38.7398 6.31325 39.0663 6.53145C39.3927 6.74965 39.6472 7.05975 39.7975 7.42254C39.9477 7.78533 39.987 8.18452 39.9104 8.56966C39.8339 8.9548 39.6448 9.30858 39.3672 9.58629L32.3437 16.6018C31.9714 16.9743 31.4664 17.1835 30.9398 17.1837H26.1482L22.5183 20.8155C22.1457 21.1881 21.6404 21.3975 21.1134 21.3975C20.5865 21.3975 20.0811 21.1881 19.7085 20.8155C19.3359 20.4429 19.1266 19.9376 19.1266 19.4106C19.1266 18.8837 19.3359 18.3783 19.7085 18.0057L23.3404 14.3778V9.5843C23.3405 9.0577 23.5498 8.5527 23.9222 8.1804L30.9418 1.15889C31.2195 0.881018 31.5733 0.691761 31.9586 0.615059C32.3439 0.538356 32.7433 0.577655 33.1062 0.727984M30.36 7.35434L27.3119 10.4064V13.2142H30.1197L33.1698 10.1661H32.3457C31.819 10.1661 31.314 9.95691 30.9416 9.58451C30.5692 9.21212 30.36 8.70704 30.36 8.1804V7.35434Z" fill="#EA5B0C"/>
</svg>
