<svg width="114" height="99" viewBox="0 0 114 99" fill="none" xmlns="http://www.w3.org/2000/svg">
<rect x="36" y="40" width="78" height="59" rx="5" fill="#D9D9D9" fill-opacity="0.5"/>
<path d="M3.57102 23.2216C3.00852 23.2216 2.52557 23.0227 2.12216 22.625C1.72443 22.2216 1.52557 21.7386 1.52557 21.1761C1.52557 20.6193 1.72443 20.142 2.12216 19.7443C2.52557 19.3466 3.00852 19.1477 3.57102 19.1477C4.11648 19.1477 4.59375 19.3466 5.00284 19.7443C5.41193 20.142 5.61648 20.6193 5.61648 21.1761C5.61648 21.5511 5.51989 21.8949 5.3267 22.2074C5.1392 22.5142 4.89205 22.7614 4.58523 22.9489C4.27841 23.1307 3.94034 23.2216 3.57102 23.2216ZM10.7195 23.2216C10.157 23.2216 9.67401 23.0227 9.2706 22.625C8.87287 22.2216 8.67401 21.7386 8.67401 21.1761C8.67401 20.6193 8.87287 20.142 9.2706 19.7443C9.67401 19.3466 10.157 19.1477 10.7195 19.1477C11.2649 19.1477 11.7422 19.3466 12.1513 19.7443C12.5604 20.142 12.7649 20.6193 12.7649 21.1761C12.7649 21.5511 12.6683 21.8949 12.4751 22.2074C12.2876 22.5142 12.0405 22.7614 11.7337 22.9489C11.4268 23.1307 11.0888 23.2216 10.7195 23.2216ZM17.8679 23.2216C17.3054 23.2216 16.8224 23.0227 16.419 22.625C16.0213 22.2216 15.8224 21.7386 15.8224 21.1761C15.8224 20.6193 16.0213 20.142 16.419 19.7443C16.8224 19.3466 17.3054 19.1477 17.8679 19.1477C18.4134 19.1477 18.8906 19.3466 19.2997 19.7443C19.7088 20.142 19.9134 20.6193 19.9134 21.1761C19.9134 21.5511 19.8168 21.8949 19.6236 22.2074C19.4361 22.5142 19.1889 22.7614 18.8821 22.9489C18.5753 23.1307 18.2372 23.2216 17.8679 23.2216ZM25.0163 23.2216C24.4538 23.2216 23.9709 23.0227 23.5675 22.625C23.1697 22.2216 22.9709 21.7386 22.9709 21.1761C22.9709 20.6193 23.1697 20.142 23.5675 19.7443C23.9709 19.3466 24.4538 19.1477 25.0163 19.1477C25.5618 19.1477 26.0391 19.3466 26.4482 19.7443C26.8572 20.142 27.0618 20.6193 27.0618 21.1761C27.0618 21.5511 26.9652 21.8949 26.772 22.2074C26.5845 22.5142 26.3374 22.7614 26.0305 22.9489C25.7237 23.1307 25.3857 23.2216 25.0163 23.2216ZM32.1648 23.2216C31.6023 23.2216 31.1193 23.0227 30.7159 22.625C30.3182 22.2216 30.1193 21.7386 30.1193 21.1761C30.1193 20.6193 30.3182 20.142 30.7159 19.7443C31.1193 19.3466 31.6023 19.1477 32.1648 19.1477C32.7102 19.1477 33.1875 19.3466 33.5966 19.7443C34.0057 20.142 34.2102 20.6193 34.2102 21.1761C34.2102 21.5511 34.1136 21.8949 33.9205 22.2074C33.733 22.5142 33.4858 22.7614 33.179 22.9489C32.8722 23.1307 32.5341 23.2216 32.1648 23.2216ZM39.3132 23.2216C38.7507 23.2216 38.2678 23.0227 37.8643 22.625C37.4666 22.2216 37.2678 21.7386 37.2678 21.1761C37.2678 20.6193 37.4666 20.142 37.8643 19.7443C38.2678 19.3466 38.7507 19.1477 39.3132 19.1477C39.8587 19.1477 40.3359 19.3466 40.745 19.7443C41.1541 20.142 41.3587 20.6193 41.3587 21.1761C41.3587 21.5511 41.2621 21.8949 41.0689 22.2074C40.8814 22.5142 40.6342 22.7614 40.3274 22.9489C40.0206 23.1307 39.6825 23.2216 39.3132 23.2216ZM46.4616 23.2216C45.8991 23.2216 45.4162 23.0227 45.0128 22.625C44.6151 22.2216 44.4162 21.7386 44.4162 21.1761C44.4162 20.6193 44.6151 20.142 45.0128 19.7443C45.4162 19.3466 45.8991 19.1477 46.4616 19.1477C47.0071 19.1477 47.4844 19.3466 47.8935 19.7443C48.3026 20.142 48.5071 20.6193 48.5071 21.1761C48.5071 21.5511 48.4105 21.8949 48.2173 22.2074C48.0298 22.5142 47.7827 22.7614 47.4759 22.9489C47.169 23.1307 46.831 23.2216 46.4616 23.2216ZM53.6101 23.2216C53.0476 23.2216 52.5646 23.0227 52.1612 22.625C51.7635 22.2216 51.5646 21.7386 51.5646 21.1761C51.5646 20.6193 51.7635 20.142 52.1612 19.7443C52.5646 19.3466 53.0476 19.1477 53.6101 19.1477C54.1555 19.1477 54.6328 19.3466 55.0419 19.7443C55.451 20.142 55.6555 20.6193 55.6555 21.1761C55.6555 21.5511 55.5589 21.8949 55.3658 22.2074C55.1783 22.5142 54.9311 22.7614 54.6243 22.9489C54.3175 23.1307 53.9794 23.2216 53.6101 23.2216ZM60.7585 23.2216C60.196 23.2216 59.7131 23.0227 59.3097 22.625C58.9119 22.2216 58.7131 21.7386 58.7131 21.1761C58.7131 20.6193 58.9119 20.142 59.3097 19.7443C59.7131 19.3466 60.196 19.1477 60.7585 19.1477C61.304 19.1477 61.7813 19.3466 62.1903 19.7443C62.5994 20.142 62.804 20.6193 62.804 21.1761C62.804 21.5511 62.7074 21.8949 62.5142 22.2074C62.3267 22.5142 62.0795 22.7614 61.7727 22.9489C61.4659 23.1307 61.1278 23.2216 60.7585 23.2216ZM67.907 23.2216C67.3445 23.2216 66.8615 23.0227 66.4581 22.625C66.0604 22.2216 65.8615 21.7386 65.8615 21.1761C65.8615 20.6193 66.0604 20.142 66.4581 19.7443C66.8615 19.3466 67.3445 19.1477 67.907 19.1477C68.4524 19.1477 68.9297 19.3466 69.3388 19.7443C69.7479 20.142 69.9524 20.6193 69.9524 21.1761C69.9524 21.5511 69.8558 21.8949 69.6626 22.2074C69.4751 22.5142 69.228 22.7614 68.9212 22.9489C68.6143 23.1307 68.2763 23.2216 67.907 23.2216ZM75.0554 23.2216C74.4929 23.2216 74.0099 23.0227 73.6065 22.625C73.2088 22.2216 73.0099 21.7386 73.0099 21.1761C73.0099 20.6193 73.2088 20.142 73.6065 19.7443C74.0099 19.3466 74.4929 19.1477 75.0554 19.1477C75.6009 19.1477 76.0781 19.3466 76.4872 19.7443C76.8963 20.142 77.1009 20.6193 77.1009 21.1761C77.1009 21.5511 77.0043 21.8949 76.8111 22.2074C76.6236 22.5142 76.3764 22.7614 76.0696 22.9489C75.7628 23.1307 75.4247 23.2216 75.0554 23.2216ZM82.2038 23.2216C81.6413 23.2216 81.1584 23.0227 80.755 22.625C80.3572 22.2216 80.1584 21.7386 80.1584 21.1761C80.1584 20.6193 80.3572 20.142 80.755 19.7443C81.1584 19.3466 81.6413 19.1477 82.2038 19.1477C82.7493 19.1477 83.2266 19.3466 83.6357 19.7443C84.0447 20.142 84.2493 20.6193 84.2493 21.1761C84.2493 21.5511 84.1527 21.8949 83.9595 22.2074C83.772 22.5142 83.5249 22.7614 83.218 22.9489C82.9112 23.1307 82.5732 23.2216 82.2038 23.2216Z" fill="#EA5B0C"/>
<path d="M3.57102 34.2216C3.00852 34.2216 2.52557 34.0227 2.12216 33.625C1.72443 33.2216 1.52557 32.7386 1.52557 32.1761C1.52557 31.6193 1.72443 31.142 2.12216 30.7443C2.52557 30.3466 3.00852 30.1477 3.57102 30.1477C4.11648 30.1477 4.59375 30.3466 5.00284 30.7443C5.41193 31.142 5.61648 31.6193 5.61648 32.1761C5.61648 32.5511 5.51989 32.8949 5.3267 33.2074C5.1392 33.5142 4.89205 33.7614 4.58523 33.9489C4.27841 34.1307 3.94034 34.2216 3.57102 34.2216ZM10.7195 34.2216C10.157 34.2216 9.67401 34.0227 9.2706 33.625C8.87287 33.2216 8.67401 32.7386 8.67401 32.1761C8.67401 31.6193 8.87287 31.142 9.2706 30.7443C9.67401 30.3466 10.157 30.1477 10.7195 30.1477C11.2649 30.1477 11.7422 30.3466 12.1513 30.7443C12.5604 31.142 12.7649 31.6193 12.7649 32.1761C12.7649 32.5511 12.6683 32.8949 12.4751 33.2074C12.2876 33.5142 12.0405 33.7614 11.7337 33.9489C11.4268 34.1307 11.0888 34.2216 10.7195 34.2216ZM17.8679 34.2216C17.3054 34.2216 16.8224 34.0227 16.419 33.625C16.0213 33.2216 15.8224 32.7386 15.8224 32.1761C15.8224 31.6193 16.0213 31.142 16.419 30.7443C16.8224 30.3466 17.3054 30.1477 17.8679 30.1477C18.4134 30.1477 18.8906 30.3466 19.2997 30.7443C19.7088 31.142 19.9134 31.6193 19.9134 32.1761C19.9134 32.5511 19.8168 32.8949 19.6236 33.2074C19.4361 33.5142 19.1889 33.7614 18.8821 33.9489C18.5753 34.1307 18.2372 34.2216 17.8679 34.2216ZM25.0163 34.2216C24.4538 34.2216 23.9709 34.0227 23.5675 33.625C23.1697 33.2216 22.9709 32.7386 22.9709 32.1761C22.9709 31.6193 23.1697 31.142 23.5675 30.7443C23.9709 30.3466 24.4538 30.1477 25.0163 30.1477C25.5618 30.1477 26.0391 30.3466 26.4482 30.7443C26.8572 31.142 27.0618 31.6193 27.0618 32.1761C27.0618 32.5511 26.9652 32.8949 26.772 33.2074C26.5845 33.5142 26.3374 33.7614 26.0305 33.9489C25.7237 34.1307 25.3857 34.2216 25.0163 34.2216ZM32.1648 34.2216C31.6023 34.2216 31.1193 34.0227 30.7159 33.625C30.3182 33.2216 30.1193 32.7386 30.1193 32.1761C30.1193 31.6193 30.3182 31.142 30.7159 30.7443C31.1193 30.3466 31.6023 30.1477 32.1648 30.1477C32.7102 30.1477 33.1875 30.3466 33.5966 30.7443C34.0057 31.142 34.2102 31.6193 34.2102 32.1761C34.2102 32.5511 34.1136 32.8949 33.9205 33.2074C33.733 33.5142 33.4858 33.7614 33.179 33.9489C32.8722 34.1307 32.5341 34.2216 32.1648 34.2216ZM39.3132 34.2216C38.7507 34.2216 38.2678 34.0227 37.8643 33.625C37.4666 33.2216 37.2678 32.7386 37.2678 32.1761C37.2678 31.6193 37.4666 31.142 37.8643 30.7443C38.2678 30.3466 38.7507 30.1477 39.3132 30.1477C39.8587 30.1477 40.3359 30.3466 40.745 30.7443C41.1541 31.142 41.3587 31.6193 41.3587 32.1761C41.3587 32.5511 41.2621 32.8949 41.0689 33.2074C40.8814 33.5142 40.6342 33.7614 40.3274 33.9489C40.0206 34.1307 39.6825 34.2216 39.3132 34.2216ZM46.4616 34.2216C45.8991 34.2216 45.4162 34.0227 45.0128 33.625C44.6151 33.2216 44.4162 32.7386 44.4162 32.1761C44.4162 31.6193 44.6151 31.142 45.0128 30.7443C45.4162 30.3466 45.8991 30.1477 46.4616 30.1477C47.0071 30.1477 47.4844 30.3466 47.8935 30.7443C48.3026 31.142 48.5071 31.6193 48.5071 32.1761C48.5071 32.5511 48.4105 32.8949 48.2173 33.2074C48.0298 33.5142 47.7827 33.7614 47.4759 33.9489C47.169 34.1307 46.831 34.2216 46.4616 34.2216ZM53.6101 34.2216C53.0476 34.2216 52.5646 34.0227 52.1612 33.625C51.7635 33.2216 51.5646 32.7386 51.5646 32.1761C51.5646 31.6193 51.7635 31.142 52.1612 30.7443C52.5646 30.3466 53.0476 30.1477 53.6101 30.1477C54.1555 30.1477 54.6328 30.3466 55.0419 30.7443C55.451 31.142 55.6555 31.6193 55.6555 32.1761C55.6555 32.5511 55.5589 32.8949 55.3658 33.2074C55.1783 33.5142 54.9311 33.7614 54.6243 33.9489C54.3175 34.1307 53.9794 34.2216 53.6101 34.2216ZM60.7585 34.2216C60.196 34.2216 59.7131 34.0227 59.3097 33.625C58.9119 33.2216 58.7131 32.7386 58.7131 32.1761C58.7131 31.6193 58.9119 31.142 59.3097 30.7443C59.7131 30.3466 60.196 30.1477 60.7585 30.1477C61.304 30.1477 61.7813 30.3466 62.1903 30.7443C62.5994 31.142 62.804 31.6193 62.804 32.1761C62.804 32.5511 62.7074 32.8949 62.5142 33.2074C62.3267 33.5142 62.0795 33.7614 61.7727 33.9489C61.4659 34.1307 61.1278 34.2216 60.7585 34.2216ZM67.907 34.2216C67.3445 34.2216 66.8615 34.0227 66.4581 33.625C66.0604 33.2216 65.8615 32.7386 65.8615 32.1761C65.8615 31.6193 66.0604 31.142 66.4581 30.7443C66.8615 30.3466 67.3445 30.1477 67.907 30.1477C68.4524 30.1477 68.9297 30.3466 69.3388 30.7443C69.7479 31.142 69.9524 31.6193 69.9524 32.1761C69.9524 32.5511 69.8558 32.8949 69.6626 33.2074C69.4751 33.5142 69.228 33.7614 68.9212 33.9489C68.6143 34.1307 68.2763 34.2216 67.907 34.2216ZM75.0554 34.2216C74.4929 34.2216 74.0099 34.0227 73.6065 33.625C73.2088 33.2216 73.0099 32.7386 73.0099 32.1761C73.0099 31.6193 73.2088 31.142 73.6065 30.7443C74.0099 30.3466 74.4929 30.1477 75.0554 30.1477C75.6009 30.1477 76.0781 30.3466 76.4872 30.7443C76.8963 31.142 77.1009 31.6193 77.1009 32.1761C77.1009 32.5511 77.0043 32.8949 76.8111 33.2074C76.6236 33.5142 76.3764 33.7614 76.0696 33.9489C75.7628 34.1307 75.4247 34.2216 75.0554 34.2216ZM82.2038 34.2216C81.6413 34.2216 81.1584 34.0227 80.755 33.625C80.3572 33.2216 80.1584 32.7386 80.1584 32.1761C80.1584 31.6193 80.3572 31.142 80.755 30.7443C81.1584 30.3466 81.6413 30.1477 82.2038 30.1477C82.7493 30.1477 83.2266 30.3466 83.6357 30.7443C84.0447 31.142 84.2493 31.6193 84.2493 32.1761C84.2493 32.5511 84.1527 32.8949 83.9595 33.2074C83.772 33.5142 83.5249 33.7614 83.218 33.9489C82.9112 34.1307 82.5732 34.2216 82.2038 34.2216Z" fill="#EA5B0C"/>
<path d="M3.57102 45.2216C3.00852 45.2216 2.52557 45.0227 2.12216 44.625C1.72443 44.2216 1.52557 43.7386 1.52557 43.1761C1.52557 42.6193 1.72443 42.142 2.12216 41.7443C2.52557 41.3466 3.00852 41.1477 3.57102 41.1477C4.11648 41.1477 4.59375 41.3466 5.00284 41.7443C5.41193 42.142 5.61648 42.6193 5.61648 43.1761C5.61648 43.5511 5.51989 43.8949 5.3267 44.2074C5.1392 44.5142 4.89205 44.7614 4.58523 44.9489C4.27841 45.1307 3.94034 45.2216 3.57102 45.2216ZM10.7195 45.2216C10.157 45.2216 9.67401 45.0227 9.2706 44.625C8.87287 44.2216 8.67401 43.7386 8.67401 43.1761C8.67401 42.6193 8.87287 42.142 9.2706 41.7443C9.67401 41.3466 10.157 41.1477 10.7195 41.1477C11.2649 41.1477 11.7422 41.3466 12.1513 41.7443C12.5604 42.142 12.7649 42.6193 12.7649 43.1761C12.7649 43.5511 12.6683 43.8949 12.4751 44.2074C12.2876 44.5142 12.0405 44.7614 11.7337 44.9489C11.4268 45.1307 11.0888 45.2216 10.7195 45.2216ZM17.8679 45.2216C17.3054 45.2216 16.8224 45.0227 16.419 44.625C16.0213 44.2216 15.8224 43.7386 15.8224 43.1761C15.8224 42.6193 16.0213 42.142 16.419 41.7443C16.8224 41.3466 17.3054 41.1477 17.8679 41.1477C18.4134 41.1477 18.8906 41.3466 19.2997 41.7443C19.7088 42.142 19.9134 42.6193 19.9134 43.1761C19.9134 43.5511 19.8168 43.8949 19.6236 44.2074C19.4361 44.5142 19.1889 44.7614 18.8821 44.9489C18.5753 45.1307 18.2372 45.2216 17.8679 45.2216ZM25.0163 45.2216C24.4538 45.2216 23.9709 45.0227 23.5675 44.625C23.1697 44.2216 22.9709 43.7386 22.9709 43.1761C22.9709 42.6193 23.1697 42.142 23.5675 41.7443C23.9709 41.3466 24.4538 41.1477 25.0163 41.1477C25.5618 41.1477 26.0391 41.3466 26.4482 41.7443C26.8572 42.142 27.0618 42.6193 27.0618 43.1761C27.0618 43.5511 26.9652 43.8949 26.772 44.2074C26.5845 44.5142 26.3374 44.7614 26.0305 44.9489C25.7237 45.1307 25.3857 45.2216 25.0163 45.2216ZM32.1648 45.2216C31.6023 45.2216 31.1193 45.0227 30.7159 44.625C30.3182 44.2216 30.1193 43.7386 30.1193 43.1761C30.1193 42.6193 30.3182 42.142 30.7159 41.7443C31.1193 41.3466 31.6023 41.1477 32.1648 41.1477C32.7102 41.1477 33.1875 41.3466 33.5966 41.7443C34.0057 42.142 34.2102 42.6193 34.2102 43.1761C34.2102 43.5511 34.1136 43.8949 33.9205 44.2074C33.733 44.5142 33.4858 44.7614 33.179 44.9489C32.8722 45.1307 32.5341 45.2216 32.1648 45.2216ZM39.3132 45.2216C38.7507 45.2216 38.2678 45.0227 37.8643 44.625C37.4666 44.2216 37.2678 43.7386 37.2678 43.1761C37.2678 42.6193 37.4666 42.142 37.8643 41.7443C38.2678 41.3466 38.7507 41.1477 39.3132 41.1477C39.8587 41.1477 40.3359 41.3466 40.745 41.7443C41.1541 42.142 41.3587 42.6193 41.3587 43.1761C41.3587 43.5511 41.2621 43.8949 41.0689 44.2074C40.8814 44.5142 40.6342 44.7614 40.3274 44.9489C40.0206 45.1307 39.6825 45.2216 39.3132 45.2216ZM46.4616 45.2216C45.8991 45.2216 45.4162 45.0227 45.0128 44.625C44.6151 44.2216 44.4162 43.7386 44.4162 43.1761C44.4162 42.6193 44.6151 42.142 45.0128 41.7443C45.4162 41.3466 45.8991 41.1477 46.4616 41.1477C47.0071 41.1477 47.4844 41.3466 47.8935 41.7443C48.3026 42.142 48.5071 42.6193 48.5071 43.1761C48.5071 43.5511 48.4105 43.8949 48.2173 44.2074C48.0298 44.5142 47.7827 44.7614 47.4759 44.9489C47.169 45.1307 46.831 45.2216 46.4616 45.2216ZM53.6101 45.2216C53.0476 45.2216 52.5646 45.0227 52.1612 44.625C51.7635 44.2216 51.5646 43.7386 51.5646 43.1761C51.5646 42.6193 51.7635 42.142 52.1612 41.7443C52.5646 41.3466 53.0476 41.1477 53.6101 41.1477C54.1555 41.1477 54.6328 41.3466 55.0419 41.7443C55.451 42.142 55.6555 42.6193 55.6555 43.1761C55.6555 43.5511 55.5589 43.8949 55.3658 44.2074C55.1783 44.5142 54.9311 44.7614 54.6243 44.9489C54.3175 45.1307 53.9794 45.2216 53.6101 45.2216ZM60.7585 45.2216C60.196 45.2216 59.7131 45.0227 59.3097 44.625C58.9119 44.2216 58.7131 43.7386 58.7131 43.1761C58.7131 42.6193 58.9119 42.142 59.3097 41.7443C59.7131 41.3466 60.196 41.1477 60.7585 41.1477C61.304 41.1477 61.7813 41.3466 62.1903 41.7443C62.5994 42.142 62.804 42.6193 62.804 43.1761C62.804 43.5511 62.7074 43.8949 62.5142 44.2074C62.3267 44.5142 62.0795 44.7614 61.7727 44.9489C61.4659 45.1307 61.1278 45.2216 60.7585 45.2216ZM67.907 45.2216C67.3445 45.2216 66.8615 45.0227 66.4581 44.625C66.0604 44.2216 65.8615 43.7386 65.8615 43.1761C65.8615 42.6193 66.0604 42.142 66.4581 41.7443C66.8615 41.3466 67.3445 41.1477 67.907 41.1477C68.4524 41.1477 68.9297 41.3466 69.3388 41.7443C69.7479 42.142 69.9524 42.6193 69.9524 43.1761C69.9524 43.5511 69.8558 43.8949 69.6626 44.2074C69.4751 44.5142 69.228 44.7614 68.9212 44.9489C68.6143 45.1307 68.2763 45.2216 67.907 45.2216ZM75.0554 45.2216C74.4929 45.2216 74.0099 45.0227 73.6065 44.625C73.2088 44.2216 73.0099 43.7386 73.0099 43.1761C73.0099 42.6193 73.2088 42.142 73.6065 41.7443C74.0099 41.3466 74.4929 41.1477 75.0554 41.1477C75.6009 41.1477 76.0781 41.3466 76.4872 41.7443C76.8963 42.142 77.1009 42.6193 77.1009 43.1761C77.1009 43.5511 77.0043 43.8949 76.8111 44.2074C76.6236 44.5142 76.3764 44.7614 76.0696 44.9489C75.7628 45.1307 75.4247 45.2216 75.0554 45.2216ZM82.2038 45.2216C81.6413 45.2216 81.1584 45.0227 80.755 44.625C80.3572 44.2216 80.1584 43.7386 80.1584 43.1761C80.1584 42.6193 80.3572 42.142 80.755 41.7443C81.1584 41.3466 81.6413 41.1477 82.2038 41.1477C82.7493 41.1477 83.2266 41.3466 83.6357 41.7443C84.0447 42.142 84.2493 42.6193 84.2493 43.1761C84.2493 43.5511 84.1527 43.8949 83.9595 44.2074C83.772 44.5142 83.5249 44.7614 83.218 44.9489C82.9112 45.1307 82.5732 45.2216 82.2038 45.2216Z" fill="#EA5B0C"/>
<path d="M3.57102 56.2216C3.00852 56.2216 2.52557 56.0227 2.12216 55.625C1.72443 55.2216 1.52557 54.7386 1.52557 54.1761C1.52557 53.6193 1.72443 53.142 2.12216 52.7443C2.52557 52.3466 3.00852 52.1477 3.57102 52.1477C4.11648 52.1477 4.59375 52.3466 5.00284 52.7443C5.41193 53.142 5.61648 53.6193 5.61648 54.1761C5.61648 54.5511 5.51989 54.8949 5.3267 55.2074C5.1392 55.5142 4.89205 55.7614 4.58523 55.9489C4.27841 56.1307 3.94034 56.2216 3.57102 56.2216ZM10.7195 56.2216C10.157 56.2216 9.67401 56.0227 9.2706 55.625C8.87287 55.2216 8.67401 54.7386 8.67401 54.1761C8.67401 53.6193 8.87287 53.142 9.2706 52.7443C9.67401 52.3466 10.157 52.1477 10.7195 52.1477C11.2649 52.1477 11.7422 52.3466 12.1513 52.7443C12.5604 53.142 12.7649 53.6193 12.7649 54.1761C12.7649 54.5511 12.6683 54.8949 12.4751 55.2074C12.2876 55.5142 12.0405 55.7614 11.7337 55.9489C11.4268 56.1307 11.0888 56.2216 10.7195 56.2216ZM17.8679 56.2216C17.3054 56.2216 16.8224 56.0227 16.419 55.625C16.0213 55.2216 15.8224 54.7386 15.8224 54.1761C15.8224 53.6193 16.0213 53.142 16.419 52.7443C16.8224 52.3466 17.3054 52.1477 17.8679 52.1477C18.4134 52.1477 18.8906 52.3466 19.2997 52.7443C19.7088 53.142 19.9134 53.6193 19.9134 54.1761C19.9134 54.5511 19.8168 54.8949 19.6236 55.2074C19.4361 55.5142 19.1889 55.7614 18.8821 55.9489C18.5753 56.1307 18.2372 56.2216 17.8679 56.2216ZM25.0163 56.2216C24.4538 56.2216 23.9709 56.0227 23.5675 55.625C23.1697 55.2216 22.9709 54.7386 22.9709 54.1761C22.9709 53.6193 23.1697 53.142 23.5675 52.7443C23.9709 52.3466 24.4538 52.1477 25.0163 52.1477C25.5618 52.1477 26.0391 52.3466 26.4482 52.7443C26.8572 53.142 27.0618 53.6193 27.0618 54.1761C27.0618 54.5511 26.9652 54.8949 26.772 55.2074C26.5845 55.5142 26.3374 55.7614 26.0305 55.9489C25.7237 56.1307 25.3857 56.2216 25.0163 56.2216ZM32.1648 56.2216C31.6023 56.2216 31.1193 56.0227 30.7159 55.625C30.3182 55.2216 30.1193 54.7386 30.1193 54.1761C30.1193 53.6193 30.3182 53.142 30.7159 52.7443C31.1193 52.3466 31.6023 52.1477 32.1648 52.1477C32.7102 52.1477 33.1875 52.3466 33.5966 52.7443C34.0057 53.142 34.2102 53.6193 34.2102 54.1761C34.2102 54.5511 34.1136 54.8949 33.9205 55.2074C33.733 55.5142 33.4858 55.7614 33.179 55.9489C32.8722 56.1307 32.5341 56.2216 32.1648 56.2216ZM39.3132 56.2216C38.7507 56.2216 38.2678 56.0227 37.8643 55.625C37.4666 55.2216 37.2678 54.7386 37.2678 54.1761C37.2678 53.6193 37.4666 53.142 37.8643 52.7443C38.2678 52.3466 38.7507 52.1477 39.3132 52.1477C39.8587 52.1477 40.3359 52.3466 40.745 52.7443C41.1541 53.142 41.3587 53.6193 41.3587 54.1761C41.3587 54.5511 41.2621 54.8949 41.0689 55.2074C40.8814 55.5142 40.6342 55.7614 40.3274 55.9489C40.0206 56.1307 39.6825 56.2216 39.3132 56.2216ZM46.4616 56.2216C45.8991 56.2216 45.4162 56.0227 45.0128 55.625C44.6151 55.2216 44.4162 54.7386 44.4162 54.1761C44.4162 53.6193 44.6151 53.142 45.0128 52.7443C45.4162 52.3466 45.8991 52.1477 46.4616 52.1477C47.0071 52.1477 47.4844 52.3466 47.8935 52.7443C48.3026 53.142 48.5071 53.6193 48.5071 54.1761C48.5071 54.5511 48.4105 54.8949 48.2173 55.2074C48.0298 55.5142 47.7827 55.7614 47.4759 55.9489C47.169 56.1307 46.831 56.2216 46.4616 56.2216ZM53.6101 56.2216C53.0476 56.2216 52.5646 56.0227 52.1612 55.625C51.7635 55.2216 51.5646 54.7386 51.5646 54.1761C51.5646 53.6193 51.7635 53.142 52.1612 52.7443C52.5646 52.3466 53.0476 52.1477 53.6101 52.1477C54.1555 52.1477 54.6328 52.3466 55.0419 52.7443C55.451 53.142 55.6555 53.6193 55.6555 54.1761C55.6555 54.5511 55.5589 54.8949 55.3658 55.2074C55.1783 55.5142 54.9311 55.7614 54.6243 55.9489C54.3175 56.1307 53.9794 56.2216 53.6101 56.2216ZM60.7585 56.2216C60.196 56.2216 59.7131 56.0227 59.3097 55.625C58.9119 55.2216 58.7131 54.7386 58.7131 54.1761C58.7131 53.6193 58.9119 53.142 59.3097 52.7443C59.7131 52.3466 60.196 52.1477 60.7585 52.1477C61.304 52.1477 61.7813 52.3466 62.1903 52.7443C62.5994 53.142 62.804 53.6193 62.804 54.1761C62.804 54.5511 62.7074 54.8949 62.5142 55.2074C62.3267 55.5142 62.0795 55.7614 61.7727 55.9489C61.4659 56.1307 61.1278 56.2216 60.7585 56.2216ZM67.907 56.2216C67.3445 56.2216 66.8615 56.0227 66.4581 55.625C66.0604 55.2216 65.8615 54.7386 65.8615 54.1761C65.8615 53.6193 66.0604 53.142 66.4581 52.7443C66.8615 52.3466 67.3445 52.1477 67.907 52.1477C68.4524 52.1477 68.9297 52.3466 69.3388 52.7443C69.7479 53.142 69.9524 53.6193 69.9524 54.1761C69.9524 54.5511 69.8558 54.8949 69.6626 55.2074C69.4751 55.5142 69.228 55.7614 68.9212 55.9489C68.6143 56.1307 68.2763 56.2216 67.907 56.2216ZM75.0554 56.2216C74.4929 56.2216 74.0099 56.0227 73.6065 55.625C73.2088 55.2216 73.0099 54.7386 73.0099 54.1761C73.0099 53.6193 73.2088 53.142 73.6065 52.7443C74.0099 52.3466 74.4929 52.1477 75.0554 52.1477C75.6009 52.1477 76.0781 52.3466 76.4872 52.7443C76.8963 53.142 77.1009 53.6193 77.1009 54.1761C77.1009 54.5511 77.0043 54.8949 76.8111 55.2074C76.6236 55.5142 76.3764 55.7614 76.0696 55.9489C75.7628 56.1307 75.4247 56.2216 75.0554 56.2216ZM82.2038 56.2216C81.6413 56.2216 81.1584 56.0227 80.755 55.625C80.3572 55.2216 80.1584 54.7386 80.1584 54.1761C80.1584 53.6193 80.3572 53.142 80.755 52.7443C81.1584 52.3466 81.6413 52.1477 82.2038 52.1477C82.7493 52.1477 83.2266 52.3466 83.6357 52.7443C84.0447 53.142 84.2493 53.6193 84.2493 54.1761C84.2493 54.5511 84.1527 54.8949 83.9595 55.2074C83.772 55.5142 83.5249 55.7614 83.218 55.9489C82.9112 56.1307 82.5732 56.2216 82.2038 56.2216Z" fill="#EA5B0C"/>
<path d="M3.57102 67.2216C3.00852 67.2216 2.52557 67.0227 2.12216 66.625C1.72443 66.2216 1.52557 65.7386 1.52557 65.1761C1.52557 64.6193 1.72443 64.142 2.12216 63.7443C2.52557 63.3466 3.00852 63.1477 3.57102 63.1477C4.11648 63.1477 4.59375 63.3466 5.00284 63.7443C5.41193 64.142 5.61648 64.6193 5.61648 65.1761C5.61648 65.5511 5.51989 65.8949 5.3267 66.2074C5.1392 66.5142 4.89205 66.7614 4.58523 66.9489C4.27841 67.1307 3.94034 67.2216 3.57102 67.2216ZM10.7195 67.2216C10.157 67.2216 9.67401 67.0227 9.2706 66.625C8.87287 66.2216 8.67401 65.7386 8.67401 65.1761C8.67401 64.6193 8.87287 64.142 9.2706 63.7443C9.67401 63.3466 10.157 63.1477 10.7195 63.1477C11.2649 63.1477 11.7422 63.3466 12.1513 63.7443C12.5604 64.142 12.7649 64.6193 12.7649 65.1761C12.7649 65.5511 12.6683 65.8949 12.4751 66.2074C12.2876 66.5142 12.0405 66.7614 11.7337 66.9489C11.4268 67.1307 11.0888 67.2216 10.7195 67.2216ZM17.8679 67.2216C17.3054 67.2216 16.8224 67.0227 16.419 66.625C16.0213 66.2216 15.8224 65.7386 15.8224 65.1761C15.8224 64.6193 16.0213 64.142 16.419 63.7443C16.8224 63.3466 17.3054 63.1477 17.8679 63.1477C18.4134 63.1477 18.8906 63.3466 19.2997 63.7443C19.7088 64.142 19.9134 64.6193 19.9134 65.1761C19.9134 65.5511 19.8168 65.8949 19.6236 66.2074C19.4361 66.5142 19.1889 66.7614 18.8821 66.9489C18.5753 67.1307 18.2372 67.2216 17.8679 67.2216ZM25.0163 67.2216C24.4538 67.2216 23.9709 67.0227 23.5675 66.625C23.1697 66.2216 22.9709 65.7386 22.9709 65.1761C22.9709 64.6193 23.1697 64.142 23.5675 63.7443C23.9709 63.3466 24.4538 63.1477 25.0163 63.1477C25.5618 63.1477 26.0391 63.3466 26.4482 63.7443C26.8572 64.142 27.0618 64.6193 27.0618 65.1761C27.0618 65.5511 26.9652 65.8949 26.772 66.2074C26.5845 66.5142 26.3374 66.7614 26.0305 66.9489C25.7237 67.1307 25.3857 67.2216 25.0163 67.2216ZM32.1648 67.2216C31.6023 67.2216 31.1193 67.0227 30.7159 66.625C30.3182 66.2216 30.1193 65.7386 30.1193 65.1761C30.1193 64.6193 30.3182 64.142 30.7159 63.7443C31.1193 63.3466 31.6023 63.1477 32.1648 63.1477C32.7102 63.1477 33.1875 63.3466 33.5966 63.7443C34.0057 64.142 34.2102 64.6193 34.2102 65.1761C34.2102 65.5511 34.1136 65.8949 33.9205 66.2074C33.733 66.5142 33.4858 66.7614 33.179 66.9489C32.8722 67.1307 32.5341 67.2216 32.1648 67.2216ZM39.3132 67.2216C38.7507 67.2216 38.2678 67.0227 37.8643 66.625C37.4666 66.2216 37.2678 65.7386 37.2678 65.1761C37.2678 64.6193 37.4666 64.142 37.8643 63.7443C38.2678 63.3466 38.7507 63.1477 39.3132 63.1477C39.8587 63.1477 40.3359 63.3466 40.745 63.7443C41.1541 64.142 41.3587 64.6193 41.3587 65.1761C41.3587 65.5511 41.2621 65.8949 41.0689 66.2074C40.8814 66.5142 40.6342 66.7614 40.3274 66.9489C40.0206 67.1307 39.6825 67.2216 39.3132 67.2216ZM46.4616 67.2216C45.8991 67.2216 45.4162 67.0227 45.0128 66.625C44.6151 66.2216 44.4162 65.7386 44.4162 65.1761C44.4162 64.6193 44.6151 64.142 45.0128 63.7443C45.4162 63.3466 45.8991 63.1477 46.4616 63.1477C47.0071 63.1477 47.4844 63.3466 47.8935 63.7443C48.3026 64.142 48.5071 64.6193 48.5071 65.1761C48.5071 65.5511 48.4105 65.8949 48.2173 66.2074C48.0298 66.5142 47.7827 66.7614 47.4759 66.9489C47.169 67.1307 46.831 67.2216 46.4616 67.2216ZM53.6101 67.2216C53.0476 67.2216 52.5646 67.0227 52.1612 66.625C51.7635 66.2216 51.5646 65.7386 51.5646 65.1761C51.5646 64.6193 51.7635 64.142 52.1612 63.7443C52.5646 63.3466 53.0476 63.1477 53.6101 63.1477C54.1555 63.1477 54.6328 63.3466 55.0419 63.7443C55.451 64.142 55.6555 64.6193 55.6555 65.1761C55.6555 65.5511 55.5589 65.8949 55.3658 66.2074C55.1783 66.5142 54.9311 66.7614 54.6243 66.9489C54.3175 67.1307 53.9794 67.2216 53.6101 67.2216ZM60.7585 67.2216C60.196 67.2216 59.7131 67.0227 59.3097 66.625C58.9119 66.2216 58.7131 65.7386 58.7131 65.1761C58.7131 64.6193 58.9119 64.142 59.3097 63.7443C59.7131 63.3466 60.196 63.1477 60.7585 63.1477C61.304 63.1477 61.7813 63.3466 62.1903 63.7443C62.5994 64.142 62.804 64.6193 62.804 65.1761C62.804 65.5511 62.7074 65.8949 62.5142 66.2074C62.3267 66.5142 62.0795 66.7614 61.7727 66.9489C61.4659 67.1307 61.1278 67.2216 60.7585 67.2216ZM67.907 67.2216C67.3445 67.2216 66.8615 67.0227 66.4581 66.625C66.0604 66.2216 65.8615 65.7386 65.8615 65.1761C65.8615 64.6193 66.0604 64.142 66.4581 63.7443C66.8615 63.3466 67.3445 63.1477 67.907 63.1477C68.4524 63.1477 68.9297 63.3466 69.3388 63.7443C69.7479 64.142 69.9524 64.6193 69.9524 65.1761C69.9524 65.5511 69.8558 65.8949 69.6626 66.2074C69.4751 66.5142 69.228 66.7614 68.9212 66.9489C68.6143 67.1307 68.2763 67.2216 67.907 67.2216ZM75.0554 67.2216C74.4929 67.2216 74.0099 67.0227 73.6065 66.625C73.2088 66.2216 73.0099 65.7386 73.0099 65.1761C73.0099 64.6193 73.2088 64.142 73.6065 63.7443C74.0099 63.3466 74.4929 63.1477 75.0554 63.1477C75.6009 63.1477 76.0781 63.3466 76.4872 63.7443C76.8963 64.142 77.1009 64.6193 77.1009 65.1761C77.1009 65.5511 77.0043 65.8949 76.8111 66.2074C76.6236 66.5142 76.3764 66.7614 76.0696 66.9489C75.7628 67.1307 75.4247 67.2216 75.0554 67.2216ZM82.2038 67.2216C81.6413 67.2216 81.1584 67.0227 80.755 66.625C80.3572 66.2216 80.1584 65.7386 80.1584 65.1761C80.1584 64.6193 80.3572 64.142 80.755 63.7443C81.1584 63.3466 81.6413 63.1477 82.2038 63.1477C82.7493 63.1477 83.2266 63.3466 83.6357 63.7443C84.0447 64.142 84.2493 64.6193 84.2493 65.1761C84.2493 65.5511 84.1527 65.8949 83.9595 66.2074C83.772 66.5142 83.5249 66.7614 83.218 66.9489C82.9112 67.1307 82.5732 67.2216 82.2038 67.2216Z" fill="#EA5B0C"/>
<path d="M3.57102 78.2216C3.00852 78.2216 2.52557 78.0227 2.12216 77.625C1.72443 77.2216 1.52557 76.7386 1.52557 76.1761C1.52557 75.6193 1.72443 75.142 2.12216 74.7443C2.52557 74.3466 3.00852 74.1477 3.57102 74.1477C4.11648 74.1477 4.59375 74.3466 5.00284 74.7443C5.41193 75.142 5.61648 75.6193 5.61648 76.1761C5.61648 76.5511 5.51989 76.8949 5.3267 77.2074C5.1392 77.5142 4.89205 77.7614 4.58523 77.9489C4.27841 78.1307 3.94034 78.2216 3.57102 78.2216ZM10.7195 78.2216C10.157 78.2216 9.67401 78.0227 9.2706 77.625C8.87287 77.2216 8.67401 76.7386 8.67401 76.1761C8.67401 75.6193 8.87287 75.142 9.2706 74.7443C9.67401 74.3466 10.157 74.1477 10.7195 74.1477C11.2649 74.1477 11.7422 74.3466 12.1513 74.7443C12.5604 75.142 12.7649 75.6193 12.7649 76.1761C12.7649 76.5511 12.6683 76.8949 12.4751 77.2074C12.2876 77.5142 12.0405 77.7614 11.7337 77.9489C11.4268 78.1307 11.0888 78.2216 10.7195 78.2216ZM17.8679 78.2216C17.3054 78.2216 16.8224 78.0227 16.419 77.625C16.0213 77.2216 15.8224 76.7386 15.8224 76.1761C15.8224 75.6193 16.0213 75.142 16.419 74.7443C16.8224 74.3466 17.3054 74.1477 17.8679 74.1477C18.4134 74.1477 18.8906 74.3466 19.2997 74.7443C19.7088 75.142 19.9134 75.6193 19.9134 76.1761C19.9134 76.5511 19.8168 76.8949 19.6236 77.2074C19.4361 77.5142 19.1889 77.7614 18.8821 77.9489C18.5753 78.1307 18.2372 78.2216 17.8679 78.2216ZM25.0163 78.2216C24.4538 78.2216 23.9709 78.0227 23.5675 77.625C23.1697 77.2216 22.9709 76.7386 22.9709 76.1761C22.9709 75.6193 23.1697 75.142 23.5675 74.7443C23.9709 74.3466 24.4538 74.1477 25.0163 74.1477C25.5618 74.1477 26.0391 74.3466 26.4482 74.7443C26.8572 75.142 27.0618 75.6193 27.0618 76.1761C27.0618 76.5511 26.9652 76.8949 26.772 77.2074C26.5845 77.5142 26.3374 77.7614 26.0305 77.9489C25.7237 78.1307 25.3857 78.2216 25.0163 78.2216ZM32.1648 78.2216C31.6023 78.2216 31.1193 78.0227 30.7159 77.625C30.3182 77.2216 30.1193 76.7386 30.1193 76.1761C30.1193 75.6193 30.3182 75.142 30.7159 74.7443C31.1193 74.3466 31.6023 74.1477 32.1648 74.1477C32.7102 74.1477 33.1875 74.3466 33.5966 74.7443C34.0057 75.142 34.2102 75.6193 34.2102 76.1761C34.2102 76.5511 34.1136 76.8949 33.9205 77.2074C33.733 77.5142 33.4858 77.7614 33.179 77.9489C32.8722 78.1307 32.5341 78.2216 32.1648 78.2216ZM39.3132 78.2216C38.7507 78.2216 38.2678 78.0227 37.8643 77.625C37.4666 77.2216 37.2678 76.7386 37.2678 76.1761C37.2678 75.6193 37.4666 75.142 37.8643 74.7443C38.2678 74.3466 38.7507 74.1477 39.3132 74.1477C39.8587 74.1477 40.3359 74.3466 40.745 74.7443C41.1541 75.142 41.3587 75.6193 41.3587 76.1761C41.3587 76.5511 41.2621 76.8949 41.0689 77.2074C40.8814 77.5142 40.6342 77.7614 40.3274 77.9489C40.0206 78.1307 39.6825 78.2216 39.3132 78.2216ZM46.4616 78.2216C45.8991 78.2216 45.4162 78.0227 45.0128 77.625C44.6151 77.2216 44.4162 76.7386 44.4162 76.1761C44.4162 75.6193 44.6151 75.142 45.0128 74.7443C45.4162 74.3466 45.8991 74.1477 46.4616 74.1477C47.0071 74.1477 47.4844 74.3466 47.8935 74.7443C48.3026 75.142 48.5071 75.6193 48.5071 76.1761C48.5071 76.5511 48.4105 76.8949 48.2173 77.2074C48.0298 77.5142 47.7827 77.7614 47.4759 77.9489C47.169 78.1307 46.831 78.2216 46.4616 78.2216ZM53.6101 78.2216C53.0476 78.2216 52.5646 78.0227 52.1612 77.625C51.7635 77.2216 51.5646 76.7386 51.5646 76.1761C51.5646 75.6193 51.7635 75.142 52.1612 74.7443C52.5646 74.3466 53.0476 74.1477 53.6101 74.1477C54.1555 74.1477 54.6328 74.3466 55.0419 74.7443C55.451 75.142 55.6555 75.6193 55.6555 76.1761C55.6555 76.5511 55.5589 76.8949 55.3658 77.2074C55.1783 77.5142 54.9311 77.7614 54.6243 77.9489C54.3175 78.1307 53.9794 78.2216 53.6101 78.2216ZM60.7585 78.2216C60.196 78.2216 59.7131 78.0227 59.3097 77.625C58.9119 77.2216 58.7131 76.7386 58.7131 76.1761C58.7131 75.6193 58.9119 75.142 59.3097 74.7443C59.7131 74.3466 60.196 74.1477 60.7585 74.1477C61.304 74.1477 61.7813 74.3466 62.1903 74.7443C62.5994 75.142 62.804 75.6193 62.804 76.1761C62.804 76.5511 62.7074 76.8949 62.5142 77.2074C62.3267 77.5142 62.0795 77.7614 61.7727 77.9489C61.4659 78.1307 61.1278 78.2216 60.7585 78.2216ZM67.907 78.2216C67.3445 78.2216 66.8615 78.0227 66.4581 77.625C66.0604 77.2216 65.8615 76.7386 65.8615 76.1761C65.8615 75.6193 66.0604 75.142 66.4581 74.7443C66.8615 74.3466 67.3445 74.1477 67.907 74.1477C68.4524 74.1477 68.9297 74.3466 69.3388 74.7443C69.7479 75.142 69.9524 75.6193 69.9524 76.1761C69.9524 76.5511 69.8558 76.8949 69.6626 77.2074C69.4751 77.5142 69.228 77.7614 68.9212 77.9489C68.6143 78.1307 68.2763 78.2216 67.907 78.2216ZM75.0554 78.2216C74.4929 78.2216 74.0099 78.0227 73.6065 77.625C73.2088 77.2216 73.0099 76.7386 73.0099 76.1761C73.0099 75.6193 73.2088 75.142 73.6065 74.7443C74.0099 74.3466 74.4929 74.1477 75.0554 74.1477C75.6009 74.1477 76.0781 74.3466 76.4872 74.7443C76.8963 75.142 77.1009 75.6193 77.1009 76.1761C77.1009 76.5511 77.0043 76.8949 76.8111 77.2074C76.6236 77.5142 76.3764 77.7614 76.0696 77.9489C75.7628 78.1307 75.4247 78.2216 75.0554 78.2216ZM82.2038 78.2216C81.6413 78.2216 81.1584 78.0227 80.755 77.625C80.3572 77.2216 80.1584 76.7386 80.1584 76.1761C80.1584 75.6193 80.3572 75.142 80.755 74.7443C81.1584 74.3466 81.6413 74.1477 82.2038 74.1477C82.7493 74.1477 83.2266 74.3466 83.6357 74.7443C84.0447 75.142 84.2493 75.6193 84.2493 76.1761C84.2493 76.5511 84.1527 76.8949 83.9595 77.2074C83.772 77.5142 83.5249 77.7614 83.218 77.9489C82.9112 78.1307 82.5732 78.2216 82.2038 78.2216Z" fill="#EA5B0C"/>
</svg>
