<svg width="49" height="49" viewBox="0 0 49 49" fill="none" xmlns="http://www.w3.org/2000/svg">
<path d="M12.2768 40.4211C11.7141 40.4211 11.2429 40.2305 10.8629 39.8492C10.483 39.4679 10.2924 38.9967 10.291 38.4354C10.2897 37.8741 10.4803 37.4028 10.8629 37.0215C11.2455 36.6403 11.7168 36.4496 12.2768 36.4496H36.1054C36.668 36.4496 37.14 36.6403 37.5212 37.0215C37.9025 37.4028 38.0925 37.8741 38.0911 38.4354C38.0898 38.9967 37.8992 39.4686 37.5192 39.8512C37.1393 40.2338 36.668 40.4237 36.1054 40.4211H12.2768ZM13.6668 33.4711C12.707 33.4711 11.8551 33.1567 11.1111 32.5278C10.3672 31.899 9.91176 31.1047 9.74496 30.145L7.75924 17.5357C7.69305 17.5357 7.61891 17.5443 7.53684 17.5615C7.45476 17.5787 7.37996 17.5866 7.31245 17.5853C6.48507 17.5853 5.78212 17.296 5.20361 16.7175C4.62511 16.139 4.33519 15.4354 4.33387 14.6067C4.33254 13.778 4.62246 13.0751 5.20361 12.4979C5.78477 11.9207 6.48771 11.6308 7.31245 11.6281C8.13719 11.6255 8.84079 11.9154 9.42327 12.4979C10.0058 13.0804 10.295 13.7833 10.291 14.6067C10.291 14.8384 10.2659 15.0535 10.2156 15.2521C10.1653 15.4506 10.1077 15.6327 10.0428 15.7981L16.2482 18.5782L22.4536 10.0892C22.0895 9.82443 21.7917 9.47693 21.56 9.04669C21.3283 8.61645 21.2125 8.15312 21.2125 7.65669C21.2125 6.8293 21.5024 6.1257 22.0822 5.54587C22.6621 4.96603 23.365 4.67678 24.1911 4.67811C25.0171 4.67943 25.7207 4.96934 26.3019 5.54785C26.8831 6.12636 27.1723 6.8293 27.1697 7.65669C27.1697 8.15312 27.0538 8.61645 26.8222 9.04669C26.5905 9.47693 26.2926 9.82443 25.9286 10.0892L32.134 18.5782L38.3393 15.7981C38.2732 15.6327 38.2149 15.4506 38.1646 15.2521C38.1143 15.0535 38.0898 14.8384 38.0911 14.6067C38.0911 13.7793 38.381 13.0757 38.9609 12.4959C39.5407 11.9161 40.2437 11.6268 41.0697 11.6281C41.8958 11.6295 42.5994 11.9194 43.1805 12.4979C43.7617 13.0764 44.0509 13.7793 44.0483 14.6067C44.0457 15.4341 43.7564 16.1377 43.1805 16.7175C42.6047 17.2974 41.9011 17.5866 41.0697 17.5853C41.0035 17.5853 40.9294 17.5774 40.8473 17.5615C40.7652 17.5456 40.6904 17.537 40.6229 17.5357L38.6372 30.145C38.4717 31.1047 38.017 31.899 37.273 32.5278C36.529 33.1567 35.6765 33.4711 34.7154 33.4711H13.6668ZM13.6668 29.4996H34.7154L36.0061 21.2092L33.7225 22.2021C32.8621 22.5661 31.985 22.6323 31.0915 22.4007C30.1979 22.169 29.4698 21.6726 28.9072 20.9114L24.1911 14.4081L19.475 20.9114C18.9124 21.6726 18.1843 22.169 17.2907 22.4007C16.3971 22.6323 15.5201 22.5661 14.6596 22.2021L12.376 21.2092L13.6668 29.4996Z" fill="#EA5B0C"/>
</svg>
