<svg width="17" height="17" viewBox="0 0 17 17" fill="none" xmlns="http://www.w3.org/2000/svg">
<path d="M9.25 6.5458V8.7208H11.2C11.35 8.7208 11.425 8.8708 11.425 9.0208L11.125 10.4458C11.125 10.5208 10.975 10.5958 10.9 10.5958H9.25V16.0708H7V10.6708H5.725C5.575 10.6708 5.5 10.5958 5.5 10.4458V9.0208C5.5 8.8708 5.575 8.7958 5.725 8.7958H7V6.3208C7 5.0458 7.975 4.0708 9.25 4.0708H11.275C11.425 4.0708 11.5 4.1458 11.5 4.2958V6.0958C11.5 6.2458 11.425 6.3208 11.275 6.3208H9.475C9.325 6.3208 9.25 6.3958 9.25 6.5458Z" stroke="white" stroke-miterlimit="10" stroke-linecap="round"/>
<path d="M10.75 16.0708H6.25C2.5 16.0708 1 14.5708 1 10.8208V6.3208C1 2.5708 2.5 1.0708 6.25 1.0708H10.75C14.5 1.0708 16 2.5708 16 6.3208V10.8208C16 14.5708 14.5 16.0708 10.75 16.0708Z" stroke="white" stroke-linecap="round" stroke-linejoin="round"/>
</svg>
