<svg width="39" height="42" viewBox="0 0 39 42" fill="none" xmlns="http://www.w3.org/2000/svg">
<path d="M28.2515 8.02357C29.2752 8.02357 30.2569 7.61693 30.9807 6.8931C31.7046 6.16927 32.1112 5.18754 32.1112 4.16389C32.1112 3.14023 31.7046 2.15851 30.9807 1.43468C30.2569 0.710844 29.2752 0.304199 28.2515 0.304199C27.2279 0.304199 26.2462 0.710844 25.5223 1.43468C24.7985 2.15851 24.3918 3.14023 24.3918 4.16389C24.3918 5.18754 24.7985 6.16927 25.5223 6.8931C26.2462 7.61693 27.2279 8.02357 28.2515 8.02357ZM21.3041 34.8484L23.2339 26.3571L27.2866 30.2168V41.7958H31.1463V27.322L27.0936 23.4623L28.2515 17.6728C29.5739 19.188 31.2053 20.4025 33.0361 21.2347C34.8669 22.0668 36.8546 22.4974 38.8657 22.4974V18.6377C35.4691 18.6956 32.3042 16.9202 30.5673 14.0061L28.6375 10.9183C27.9428 9.76043 26.7077 8.9885 25.3568 8.9885C24.7778 8.9885 24.3918 9.18148 23.8129 9.18148L13.7777 13.4271V22.4974H17.6374V15.9359L21.1111 14.585L18.0234 30.2168L8.56713 28.2869L7.79519 32.1466L21.3041 34.8484ZM4.12849 14.778C3.61666 14.778 3.1258 14.5747 2.76388 14.2128C2.40196 13.8509 2.19864 13.36 2.19864 12.8482C2.19864 12.3364 2.40196 11.8455 2.76388 11.4836C3.1258 11.1217 3.61666 10.9183 4.12849 10.9183H9.91802V14.778H4.12849ZM6.05833 7.05865C5.5465 7.05865 5.05564 6.85533 4.69372 6.49341C4.33181 6.1315 4.12849 5.64064 4.12849 5.12881C4.12849 4.61698 4.33181 4.12612 4.69372 3.7642C5.05564 3.40229 5.5465 3.19896 6.05833 3.19896H15.7075V7.05865H6.05833ZM2.19864 22.4974C1.68682 22.4974 1.19595 22.2941 0.834037 21.9322C0.472121 21.5702 0.268799 21.0794 0.268799 20.5676C0.268799 20.0557 0.472121 19.5649 0.834037 19.203C1.19595 18.841 1.68682 18.6377 2.19864 18.6377H9.91802V22.4974H2.19864Z" fill="#EA5B0C"/>
</svg>
