<svg width="61" height="60" viewBox="0 0 61 60" fill="none" xmlns="http://www.w3.org/2000/svg">
<path d="M34.4249 55.95C33.8499 55.95 33.2749 55.85 32.7249 55.65C30.8499 54.95 29.6499 53.2 29.6499 51.2V35.075H23.7999C21.8999 35.075 20.2499 34 19.4749 32.275C18.6999 30.55 18.9999 28.6 20.2499 27.175L39.1749 5.67504C40.4999 4.17504 42.5499 3.65004 44.4249 4.37504C46.2999 5.07504 47.4999 6.82504 47.4999 8.82504V24.95H53.3499C55.2499 24.95 56.8999 26.025 57.6749 27.75C58.4499 29.475 58.1499 31.425 56.8999 32.85L37.9749 54.35C37.0499 55.4 35.7499 55.95 34.4249 55.95ZM42.6999 7.80004C42.4749 7.80004 42.1999 7.87504 41.9749 8.15004L23.0499 29.675C22.6499 30.125 22.7999 30.575 22.8749 30.75C22.9499 30.925 23.1999 31.35 23.7999 31.35H31.5249C32.5499 31.35 33.3999 32.2 33.3999 33.225V51.225C33.3999 51.85 33.8499 52.1 34.0499 52.175C34.2499 52.25 34.7499 52.375 35.1499 51.9L54.0749 30.375C54.4749 29.925 54.3249 29.475 54.2499 29.3C54.1749 29.125 53.9249 28.7 53.3249 28.7H45.5999C44.5749 28.7 43.7249 27.85 43.7249 26.825V8.82504C43.7249 8.20004 43.2749 7.95004 43.0749 7.87504C42.9999 7.82504 42.8499 7.80004 42.6999 7.80004Z" fill="#2B2B2B"/>
<path d="M21.75 11.875H4.25C3.225 11.875 2.375 11.025 2.375 10C2.375 8.975 3.225 8.125 4.25 8.125H21.75C22.775 8.125 23.625 8.975 23.625 10C23.625 11.025 22.775 11.875 21.75 11.875Z" fill="#2B2B2B"/>
<path d="M19.25 51.875H4.25C3.225 51.875 2.375 51.025 2.375 50C2.375 48.975 3.225 48.125 4.25 48.125H19.25C20.275 48.125 21.125 48.975 21.125 50C21.125 51.025 20.275 51.875 19.25 51.875Z" fill="#2B2B2B"/>
<path d="M11.75 31.875H4.25C3.225 31.875 2.375 31.025 2.375 30C2.375 28.975 3.225 28.125 4.25 28.125H11.75C12.775 28.125 13.625 28.975 13.625 30C13.625 31.025 12.775 31.875 11.75 31.875Z" fill="#2B2B2B"/>
</svg>
