<svg width="61" height="60" viewBox="0 0 61 60" fill="none" xmlns="http://www.w3.org/2000/svg">
<path d="M30.5 56.875C15.675 56.875 3.625 44.825 3.625 30C3.625 15.175 15.675 3.125 30.5 3.125C45.325 3.125 57.375 15.175 57.375 30C57.375 44.825 45.325 56.875 30.5 56.875ZM30.5 6.875C17.75 6.875 7.375 17.25 7.375 30C7.375 42.75 17.75 53.125 30.5 53.125C43.25 53.125 53.625 42.75 53.625 30C53.625 17.25 43.25 6.875 30.5 6.875Z" fill="#2B2B2B"/>
<path d="M23.0001 54.375H20.5001C19.4751 54.375 18.6251 53.525 18.6251 52.5C18.6251 51.475 19.4251 50.65 20.4501 50.625C16.5251 37.225 16.5251 22.775 20.4501 9.375C19.4251 9.35 18.6251 8.525 18.6251 7.5C18.6251 6.475 19.4751 5.625 20.5001 5.625H23.0001C23.6001 5.625 24.1751 5.925 24.5251 6.4C24.8751 6.9 24.9751 7.525 24.7751 8.1C20.0751 22.225 20.0751 37.775 24.7751 51.925C24.9751 52.5 24.8751 53.125 24.5251 53.625C24.1751 54.075 23.6001 54.375 23.0001 54.375Z" fill="#2B2B2B"/>
<path d="M38 54.375C37.8 54.375 37.6 54.35 37.4 54.275C36.425 53.95 35.875 52.875 36.225 51.9C40.925 37.775 40.925 22.225 36.225 8.07496C35.9 7.09996 36.425 6.02496 37.4 5.69996C38.4 5.37496 39.45 5.89996 39.775 6.87496C44.75 21.775 44.75 38.175 39.775 53.05C39.525 53.875 38.775 54.375 38 54.375Z" fill="#2B2B2B"/>
<path d="M30.5 43C23.525 43 16.575 42.025 9.875 40.05C9.85 41.05 9.025 41.875 8 41.875C6.975 41.875 6.125 41.025 6.125 40V37.5C6.125 36.9 6.425 36.325 6.9 35.975C7.4 35.625 8.025 35.525 8.6 35.725C22.725 40.425 38.3 40.425 52.425 35.725C53 35.525 53.625 35.625 54.125 35.975C54.625 36.325 54.9 36.9 54.9 37.5V40C54.9 41.025 54.05 41.875 53.025 41.875C52 41.875 51.175 41.075 51.15 40.05C44.425 42.025 37.475 43 30.5 43Z" fill="#2B2B2B"/>
<path d="M53 24.375C52.7999 24.375 52.5999 24.35 52.3999 24.275C38.2749 19.575 22.6999 19.575 8.57495 24.275C7.57495 24.6 6.52495 24.075 6.19995 23.1C5.89995 22.1 6.42495 21.05 7.39995 20.725C22.2999 15.75 38.6999 15.75 53.5749 20.725C54.5499 21.05 55.1 22.125 54.75 23.1C54.525 23.875 53.7749 24.375 53 24.375Z" fill="#2B2B2B"/>
</svg>
