<svg width="36" height="36" viewBox="0 0 36 36" fill="none" xmlns="http://www.w3.org/2000/svg">
<rect x="1.44442" y="1.3558" width="33.2091" height="33.2091" rx="16.6045" stroke="#ADADAD" stroke-width="0.976737"/>
<g clip-path="url(#clip0_2056_2567)">
<path d="M15.2211 9.24983C13.358 9.89616 11.7512 11.1229 10.6369 12.7499C9.52251 14.3769 8.95925 16.3183 9.02983 18.2891C9.10042 20.2599 9.80112 22.1561 11.029 23.6992C12.2569 25.2423 13.9473 26.3509 15.8519 26.8623C17.396 27.2607 19.0137 27.2782 20.566 26.9133C21.9723 26.5974 23.2724 25.9218 24.3391 24.9525C25.4493 23.9128 26.2551 22.5903 26.6699 21.127C27.1208 19.5357 27.2011 17.8622 26.9045 16.2351H18.2337V19.8319H23.2552C23.1549 20.4056 22.9398 20.9531 22.6229 21.4417C22.306 21.9303 21.8938 22.3499 21.411 22.6755C20.7978 23.0811 20.1065 23.3541 19.3817 23.4768C18.6546 23.6119 17.9089 23.6119 17.1819 23.4768C16.4451 23.3244 15.748 23.0203 15.1351 22.5837C14.1506 21.8868 13.4113 20.8967 13.0228 19.7547C12.6278 18.5913 12.6278 17.33 13.0228 16.1666C13.2993 15.3511 13.7565 14.6087 14.3601 13.9946C15.0509 13.2789 15.9255 12.7674 16.8879 12.516C17.8503 12.2647 18.8633 12.2833 19.8158 12.5698C20.5599 12.7982 21.2403 13.1973 21.8028 13.7353C22.369 13.172 22.9343 12.6072 23.4985 12.041C23.7899 11.7366 24.1075 11.4467 24.3944 11.1349C23.5358 10.3358 22.5278 9.71405 21.4284 9.30519C19.4264 8.57824 17.2358 8.5587 15.2211 9.24983Z" fill="white"/>
<path d="M15.2216 9.24956C17.2361 8.55797 19.4267 8.57699 21.4289 9.30346C22.5285 9.7151 23.536 10.3399 24.3935 11.1419C24.1021 11.4537 23.7948 11.745 23.4976 12.048C22.9323 12.6123 22.3676 13.1746 21.8033 13.735C21.2408 13.1971 20.5604 12.798 19.8163 12.5696C18.8641 12.2821 17.8511 12.2624 16.8885 12.5127C15.9258 12.763 15.0507 13.2736 14.3592 13.9885C13.7555 14.6026 13.2984 15.3451 13.0219 16.1605L10.002 13.8224C11.0829 11.6788 12.9545 10.0392 15.2216 9.24956Z" fill="#E33629"/>
<path d="M9.20066 16.139C9.36297 15.3346 9.63245 14.5556 10.0019 13.8228L13.0218 16.1667C12.6267 17.3301 12.6267 18.5914 13.0218 19.7548C12.0156 20.5317 11.009 21.3126 10.0019 22.0973C9.07705 20.2564 8.79499 18.1589 9.20066 16.139Z" fill="#F8BD00"/>
<path d="M18.234 16.2336H26.9048C27.2014 17.8608 27.1212 19.5342 26.6703 21.1255C26.2554 22.5888 25.4496 23.9114 24.3394 24.951C23.3648 24.1906 22.3859 23.436 21.4113 22.6755C21.8945 22.3496 22.3069 21.9295 22.6238 21.4404C22.9407 20.9512 23.1556 20.4032 23.2556 19.829H18.234C18.2326 18.6315 18.234 17.4326 18.234 16.2336Z" fill="#587DBD"/>
<path d="M10.0005 22.0971C11.0076 21.3202 12.0142 20.5394 13.0204 19.7546C13.4097 20.897 14.15 21.8872 15.1356 22.5837C15.7504 23.0182 16.449 23.3199 17.1868 23.4694C17.9138 23.6046 18.6595 23.6046 19.3865 23.4694C20.1114 23.3467 20.8026 23.0738 21.4158 22.6682C22.3904 23.4286 23.3694 24.1833 24.344 24.9437C23.2774 25.9135 21.9773 26.5897 20.5709 26.906C19.0186 27.2709 17.4008 27.2534 15.8567 26.855C14.6355 26.5289 13.4948 25.9541 12.5062 25.1666C11.4597 24.3358 10.605 23.2888 10.0005 22.0971Z" fill="#319F43"/>
</g>
<defs>
<clipPath id="clip0_2056_2567">
<rect width="18.6468" height="18.6468" fill="white" transform="translate(8.72559 8.63696)"/>
</clipPath>
</defs>
</svg>
