<svg width="22" height="22" viewBox="0 0 22 22" fill="none" xmlns="http://www.w3.org/2000/svg">
<path d="M10.75 21.5C4.82 21.5 0 16.68 0 10.75C0 4.82 4.82 0 10.75 0C16.68 0 21.5 4.82 21.5 10.75C21.5 16.68 16.68 21.5 10.75 21.5ZM10.75 1.5C5.65 1.5 1.5 5.65 1.5 10.75C1.5 15.85 5.65 20 10.75 20C15.85 20 20 15.85 20 10.75C20 5.65 15.85 1.5 10.75 1.5Z" fill="#EA5B0C"/>
<path d="M9.32994 14.3301C9.12994 14.3301 8.93994 14.2501 8.79994 14.1101L5.96994 11.2801C5.67994 10.9901 5.67994 10.5101 5.96994 10.2201C6.25994 9.9301 6.73994 9.9301 7.02994 10.2201L9.32994 12.5201L14.4699 7.3801C14.7599 7.0901 15.2399 7.0901 15.5299 7.3801C15.8199 7.6701 15.8199 8.1501 15.5299 8.4401L9.85994 14.1101C9.71994 14.2501 9.52994 14.3301 9.32994 14.3301Z" fill="#EA5B0C"/>
</svg>
