<svg width="18" height="20" viewBox="0 0 18 20" fill="none" xmlns="http://www.w3.org/2000/svg">
<rect x="0.75" y="1.25" width="16.5" height="17.5" rx="1.25" stroke="black" stroke-width="1.5"/>
<path fill-rule="evenodd" clip-rule="evenodd" d="M7.73115 8.61396C7.73115 7.85802 8.48264 7.23115 9.27291 7.23115C10.0632 7.23115 10.8147 7.85802 10.8147 8.61396C10.8147 9.31268 10.4605 9.64011 9.98434 10.0629L9.96463 10.0801C9.49225 10.499 8.90734 11.0172 8.90734 12.0472C8.90734 12.0952 8.91679 12.1427 8.93516 12.1871C8.95353 12.2314 8.98046 12.2717 9.01441 12.3057C9.04836 12.3396 9.08866 12.3665 9.13301 12.3849C9.17736 12.4033 9.2249 12.4127 9.27291 12.4127C9.32092 12.4127 9.36845 12.4033 9.41281 12.3849C9.45716 12.3665 9.49746 12.3396 9.53141 12.3057C9.56535 12.2717 9.59228 12.2314 9.61065 12.1871C9.62902 12.1427 9.63848 12.0952 9.63848 12.0472C9.63848 11.3573 9.9907 11.0337 10.4694 10.6103L10.4822 10.5976C10.9577 10.1767 11.5458 9.65537 11.5458 8.61396C11.5458 7.36021 10.3658 6.5 9.27291 6.5C8.18 6.5 7 7.36021 7 8.61396C7 8.66197 7.00946 8.70951 7.02783 8.75386C7.0462 8.79822 7.07313 8.83852 7.10707 8.87246C7.14102 8.90641 7.18132 8.93334 7.22567 8.95171C7.27003 8.97008 7.31756 8.97954 7.36557 8.97954C7.41358 8.97954 7.46112 8.97008 7.50547 8.95171C7.54982 8.93334 7.59012 8.90641 7.62407 8.87246C7.65802 8.83852 7.68495 8.79822 7.70332 8.75386C7.72169 8.70951 7.73115 8.66197 7.73115 8.61396ZM9.27291 14.5C9.42045 14.5 9.56195 14.4414 9.66628 14.3371C9.7706 14.2327 9.82921 14.0912 9.82921 13.9437C9.82921 13.7962 9.7706 13.6547 9.66628 13.5503C9.56195 13.446 9.42045 13.3874 9.27291 13.3874C9.12537 13.3874 8.98387 13.446 8.87954 13.5503C8.77521 13.6547 8.7166 13.7962 8.7166 13.9437C8.7166 14.0912 8.77521 14.2327 8.87954 14.3371C8.98387 14.4414 9.12537 14.5 9.27291 14.5Z" fill="black"/>
</svg>
