<svg width="32" height="41" viewBox="0 0 32 41" fill="none" xmlns="http://www.w3.org/2000/svg">
<path d="M10.0556 15.7078C10.0756 14.1786 10.692 12.7175 11.7734 11.6361C12.8549 10.5547 14.3159 9.93827 15.8451 9.91828C17.3744 9.93827 18.8354 10.5547 19.9168 11.6361C20.9983 12.7175 21.6147 14.1786 21.6347 15.7078C21.6147 17.2371 20.9983 18.6981 19.9168 19.7795C18.8354 20.861 17.3744 21.4774 15.8451 21.4973C14.3159 21.4774 12.8549 20.861 11.7734 19.7795C10.692 18.6981 10.0756 17.2371 10.0556 15.7078ZM15.8451 33.0764L23.5645 35.0062V29.0623C21.2365 30.4643 18.5624 31.1863 15.8451 31.1466C13.1279 31.1863 10.4538 30.4643 8.12576 29.0623V35.0062M15.8451 4.12875C14.3244 4.101 12.814 4.38458 11.4068 4.96204C9.99967 5.5395 8.72549 6.39865 7.6626 7.48668C6.56281 8.55073 5.69372 9.8297 5.1094 11.244C4.52507 12.6584 4.23801 14.1778 4.26607 15.7078C4.24597 17.2281 4.53689 18.7365 5.12098 20.1403C5.70506 21.5441 6.56998 22.8137 7.6626 23.8711C8.72053 24.9695 9.99249 25.8394 11.3999 26.4269C12.8073 27.0145 14.3202 27.3071 15.8451 27.2869C17.3701 27.3071 18.883 27.0145 20.2904 26.4269C21.6978 25.8394 22.9697 24.9695 24.0277 23.8711C25.1203 22.8137 25.9852 21.5441 26.5693 20.1403C27.1534 18.7365 27.4443 17.2281 27.4242 15.7078C27.4523 14.1778 27.1652 12.6584 26.5809 11.244C25.9966 9.8297 25.1275 8.55073 24.0277 7.48668C22.9648 6.39865 21.6906 5.5395 20.2835 4.96204C18.8763 4.38458 17.3659 4.101 15.8451 4.12875ZM31.2839 15.7078C31.2445 17.5604 30.8719 19.3908 30.1839 21.1114C29.5671 22.8633 28.6315 24.486 27.4242 25.8974V40.7958L15.8451 36.9361L4.26607 40.7958V25.8974C1.76826 23.0923 0.393844 19.4638 0.406387 15.7078C0.372374 13.6826 0.75383 11.6719 1.52721 9.79988C2.30058 7.92785 3.44946 6.2342 4.90292 4.82349C6.31885 3.357 8.02032 2.19627 9.9023 1.41294C11.7843 0.629609 13.8068 0.240307 15.8451 0.269063C17.8834 0.240307 19.906 0.629609 21.788 1.41294C23.67 2.19627 25.3714 3.357 26.7874 4.82349C28.2408 6.2342 29.3897 7.92785 30.1631 9.79988C30.9364 11.6719 31.3179 13.6826 31.2839 15.7078Z" fill="#EA5B0C"/>
</svg>
