<svg width="40" height="41" viewBox="0 0 40 41" fill="none" xmlns="http://www.w3.org/2000/svg">
<path d="M21.3341 1.97375C21.3341 1.58988 21.1816 1.22173 20.9102 0.950296C20.6388 0.678859 20.2706 0.526367 19.8867 0.526367C19.5029 0.526367 19.1347 0.678859 18.8633 0.950296C18.5919 1.22173 18.4394 1.58988 18.4394 1.97375V4.82992C18.4394 5.21379 18.5919 5.58194 18.8633 5.85337C19.1347 6.12481 19.5029 6.2773 19.8867 6.2773C20.2706 6.2773 20.6388 6.12481 20.9102 5.85337C21.1816 5.58194 21.3341 5.21379 21.3341 4.82992V1.97375ZM31.1976 17.3932C30.7954 15.8294 30.0652 14.369 29.0554 13.1089C28.0544 11.8401 26.7988 10.7949 25.3694 10.0405C23.9436 9.29208 22.3814 8.83917 20.7764 8.70891C19.1668 8.58798 17.5498 8.8049 16.029 9.34575C14.4998 9.87899 13.0994 10.7271 11.9184 11.8353C10.7501 12.9247 9.81176 14.2371 9.15875 15.6949C8.52054 17.1752 8.19846 18.7725 8.21312 20.3845C8.16839 22.2463 8.56676 24.0921 9.37538 25.7697C10.184 27.4474 11.3797 28.9088 12.864 30.0337L13.5395 30.6705C14.1184 31.2688 14.1184 31.2688 14.0991 32.6004V33.2179C14.0759 33.6449 14.1416 34.0721 14.2921 34.4723C14.4272 34.9007 14.6665 35.2925 14.9869 35.6109C15.1335 35.7615 15.2944 35.8965 15.4693 36.0162V37.946C15.4376 38.296 15.4754 38.6488 15.5806 38.9841C15.6858 39.3195 15.8564 39.6306 16.0824 39.8997C16.3084 40.1688 16.5855 40.3905 16.8976 40.552C17.2097 40.7135 17.5507 40.8117 17.9009 40.8408H21.7606C22.4695 40.7818 23.1259 40.4437 23.5855 39.9009C24.0451 39.3581 24.2703 38.6549 24.2115 37.946V36.0162C24.3857 35.8979 24.5474 35.7621 24.694 35.6109C24.997 35.2906 25.2286 34.9085 25.3694 34.4916C25.5173 34.084 25.5829 33.6511 25.5624 33.2179V32.5039C25.5624 31.4425 25.5624 31.4425 26.1607 30.767L26.894 30.0916C29.3682 28.1673 30.9839 25.345 31.3905 22.2371C31.6747 20.6273 31.6089 18.9753 31.1976 17.3932ZM21.4133 37.9074H18.3641V36.6916H21.4133V37.9074ZM19.8887 17.5283C19.2591 17.5283 18.6554 17.7784 18.2102 18.2235C17.7651 18.6687 17.515 19.2725 17.515 19.902C17.515 20.4138 17.3116 20.9047 16.9497 21.2666C16.5878 21.6285 16.097 21.8318 15.5851 21.8318C15.0733 21.8318 14.5824 21.6285 14.2205 21.2666C13.8586 20.9047 13.6553 20.4138 13.6553 19.902C13.6502 19.082 13.8079 18.2691 14.1193 17.5105C14.4308 16.7519 14.8897 16.0627 15.4696 15.4829C16.0494 14.903 16.7386 14.4441 17.4972 14.1327C18.2558 13.8212 19.0687 13.6635 19.8887 13.6686C20.4005 13.6686 20.8914 13.8719 21.2533 14.2338C21.6152 14.5958 21.8185 15.0866 21.8185 15.5984C21.8185 16.1103 21.6152 16.6011 21.2533 16.9631C20.8914 17.325 20.4005 17.5283 19.8887 17.5283ZM37.566 22.3529H34.0344C33.6506 22.3529 33.2824 22.2004 33.011 21.929C32.7395 21.6575 32.587 21.2894 32.587 20.9055C32.587 20.5216 32.7395 20.1535 33.011 19.8821C33.2824 19.6106 33.6506 19.4581 34.0344 19.4581H37.566C37.9499 19.4581 38.3181 19.6106 38.5895 19.8821C38.8609 20.1535 39.0134 20.5216 39.0134 20.9055C39.0134 21.2894 38.8609 21.6575 38.5895 21.929C38.3181 22.2004 37.9499 22.3529 37.566 22.3529ZM30.4642 10.7545C30.2741 10.7554 30.0856 10.7183 29.91 10.6454C29.7343 10.5725 29.575 10.4653 29.4414 10.33C29.1704 10.0586 29.0181 9.69071 29.0181 9.30716C29.0181 8.9236 29.1704 8.55572 29.4414 8.28434L31.9502 5.77554C32.2246 5.51988 32.5875 5.38069 32.9624 5.38731C33.3374 5.39392 33.6952 5.54582 33.9604 5.81101C34.2256 6.0762 34.3775 6.43396 34.3841 6.80893C34.3907 7.1839 34.2515 7.5468 33.9958 7.82118L31.487 10.33C31.3541 10.4662 31.1949 10.574 31.0191 10.647C30.8433 10.7199 30.6545 10.7565 30.4642 10.7545ZM34.9029 34.7618C34.5212 34.7516 34.1567 34.6004 33.88 34.3372L31.3712 31.8284C31.2017 31.6604 31.0763 31.453 31.0064 31.2247C30.9364 30.9964 30.924 30.7544 30.9702 30.5202C31.0164 30.286 31.1199 30.0668 31.2713 29.8822C31.4228 29.6977 31.6176 29.5535 31.8383 29.4624C32.1031 29.3508 32.3954 29.3217 32.6771 29.3788C32.9587 29.436 33.2165 29.5768 33.4169 29.7828L35.9257 32.2916C36.0622 32.4246 36.1708 32.5837 36.2449 32.7594C36.319 32.935 36.3571 33.1238 36.3571 33.3144C36.3571 33.5051 36.319 33.6938 36.2449 33.8695C36.1708 34.0451 36.0622 34.2042 35.9257 34.3372C35.6545 34.6087 35.2866 34.7615 34.9029 34.7618ZM9.33243 10.7545C8.94869 10.7542 8.58079 10.6015 8.30962 10.33L5.80082 7.82118C5.52955 7.54735 5.37817 7.17698 5.37998 6.79154C5.38179 6.4061 5.53664 6.03716 5.81047 5.76589C6.0843 5.49463 6.45467 5.34325 6.84011 5.34505C7.22555 5.34686 7.59448 5.50172 7.86575 5.77554L10.3553 8.28434C10.5574 8.48675 10.6951 8.74454 10.7508 9.02514C10.8065 9.30573 10.7779 9.59656 10.6684 9.86087C10.559 10.1252 10.3737 10.3511 10.1359 10.5102C9.8981 10.6693 9.61851 10.7543 9.33243 10.7545ZM4.91309 34.7618C4.72229 34.7673 4.53248 34.7323 4.35618 34.6591C4.17988 34.586 4.02109 34.4762 3.89027 34.3372C3.61923 34.0658 3.46698 33.698 3.46698 33.3144C3.46698 32.9309 3.61923 32.563 3.89027 32.2916L6.39907 29.7828C6.67345 29.5271 7.03635 29.3879 7.41132 29.3946C7.78629 29.4012 8.14405 29.5531 8.40924 29.8183C8.67442 30.0834 8.82633 30.4412 8.83294 30.8162C8.83956 31.1912 8.70037 31.5541 8.4447 31.8284L5.95521 34.3565C5.67067 34.6171 5.2989 34.7617 4.91309 34.7618ZM5.72363 22.3529H2.19201C1.80814 22.3529 1.43999 22.2004 1.16856 21.929C0.89712 21.6575 0.744629 21.2894 0.744629 20.9055C0.744629 20.5216 0.89712 20.1535 1.16856 19.8821C1.43999 19.6106 1.80814 19.4581 2.19201 19.4581H5.72363C6.1075 19.4581 6.47564 19.6106 6.74708 19.8821C7.01852 20.1535 7.17101 20.5216 7.17101 20.9055C7.17101 21.2894 7.01852 21.6575 6.74708 21.929C6.47564 22.2004 6.1075 22.3529 5.72363 22.3529Z" fill="#EA5B0C"/>
</svg>
