<svg width="17" height="17" viewBox="0 0 17 17" fill="none" xmlns="http://www.w3.org/2000/svg">
<path d="M1 8.5708C1 5.03554 1 3.26712 2.09816 2.16896C3.19632 1.0708 4.96395 1.0708 8.5 1.0708C12.0353 1.0708 13.8037 1.0708 14.9018 2.16896C16 3.26712 16 5.03475 16 8.5708C16 12.1061 16 13.8745 14.9018 14.9726C13.8037 16.0708 12.0361 16.0708 8.5 16.0708C4.96474 16.0708 3.19632 16.0708 2.09816 14.9726C1 13.8745 1 12.1069 1 8.5708Z" stroke="white" stroke-linecap="round" stroke-linejoin="round"/>
<path d="M12.8483 4.22852H12.8404M12.0525 8.57062C12.0525 9.51284 11.6782 10.4165 11.012 11.0827C10.3457 11.749 9.44211 12.1233 8.4999 12.1233C7.55768 12.1233 6.65406 11.749 5.98781 11.0827C5.32156 10.4165 4.94727 9.51284 4.94727 8.57062C4.94727 7.6284 5.32156 6.72478 5.98781 6.05853C6.65406 5.39228 7.55768 5.01799 8.4999 5.01799C9.44211 5.01799 10.3457 5.39228 11.012 6.05853C11.6782 6.72478 12.0525 7.6284 12.0525 8.57062Z" stroke="white" stroke-linecap="round" stroke-linejoin="round"/>
</svg>
