<svg width="48" height="49" viewBox="0 0 48 49" fill="none" xmlns="http://www.w3.org/2000/svg">
<path d="M41.7025 22.7599C41.7025 33.7813 34.0769 44.0878 23.83 46.5899C13.5831 44.0878 5.95752 33.7813 5.95752 22.7599V10.8449L23.83 2.90161L41.7025 10.8449V22.7599ZM23.83 42.6183C31.2769 40.6324 37.7309 31.7756 37.7309 23.1968V13.4265L23.83 7.23073L9.92919 13.4265V23.1968C9.92919 31.7756 16.3831 40.6324 23.83 42.6183ZM29.8868 32.6891L23.7704 29.0153L17.6739 32.6891L19.2825 25.7387L13.9009 21.0918L21.0101 20.4762L23.7704 13.923L26.5506 20.4564L33.6599 21.072L28.2584 25.7387L29.8868 32.6891Z" fill="#EA5B0C"/>
</svg>
