<svg width="49" height="49" viewBox="0 0 49 49" fill="none" xmlns="http://www.w3.org/2000/svg">
<g clip-path="url(#clip0_1656_3181)">
<path d="M46.1601 26.7179C46.0033 29.5722 45.1641 32.3472 43.7129 34.8101C42.2617 37.273 40.2409 39.3518 37.8201 40.8721L24.7143 48.1637L11.6086 40.8721C9.18776 39.3518 7.16695 37.273 5.71576 34.8101C4.26457 32.3472 3.42536 29.5722 3.26855 26.7179V7.65494C11.3226 7.65494 18.7572 4.98614 24.7143 0.506348C30.6715 5.00996 38.106 7.65494 46.1601 7.65494V26.7179ZM24.7143 29.2914L31.6723 34.1524L29.218 26.0268L35.9853 20.9037L27.5023 20.713L24.7143 12.7066L21.9264 20.713L13.4434 20.9037L20.1869 26.003L17.7325 34.1048L24.7143 29.3152V29.2914Z" fill="#EA5B0C"/>
</g>
<defs>
<clipPath id="clip0_1656_3181">
<rect width="47.6573" height="47.6573" fill="white" transform="translate(0.885742 0.506348)"/>
</clipPath>
</defs>
</svg>
