<svg width="16" height="17" viewBox="0 0 16 17" fill="none" xmlns="http://www.w3.org/2000/svg">
<path d="M4.00965 2.47571C4.01281 2.87845 3.85732 3.26626 3.57681 3.55527C3.2963 3.84428 2.91331 4.01127 2.51065 4.02013C2.10883 4.00554 1.72798 3.83711 1.44683 3.54967C1.16567 3.26223 1.00571 2.87775 1 2.47571C1.01736 2.0839 1.18314 1.71337 1.46369 1.43931C1.74424 1.16525 2.11854 1.00819 2.51065 1C2.9016 1.00835 3.27458 1.1658 3.55324 1.44014C3.8319 1.71447 3.99518 2.08494 4.00965 2.47571ZM1.1619 6.76422C1.1619 5.8767 1.72679 6.01531 2.51065 6.01531C3.29451 6.01531 3.84775 5.8767 3.84775 6.76422V15.4111C3.84775 16.3103 3.28286 16.1263 2.51065 16.1263C1.73844 16.1263 1.1619 16.3103 1.1619 15.4111V6.76422ZM6.1772 6.76539C6.1772 6.26922 6.36123 6.08403 6.64892 6.02695C6.9366 5.96988 7.93012 6.02695 8.27487 6.02695C8.6208 6.02695 8.7594 6.59185 8.74775 7.01813C9.04398 6.62154 9.43679 6.30737 9.88878 6.10553C10.3408 5.9037 10.8369 5.82091 11.3299 5.86506C11.8142 5.83549 12.2992 5.90811 12.7536 6.07819C13.2079 6.24828 13.6214 6.51203 13.9672 6.85231C14.3129 7.1926 14.5833 7.6018 14.7606 8.05336C14.9379 8.50492 15.0183 8.98873 14.9965 9.47338V15.3762C14.9965 16.2754 14.4433 16.0913 13.6582 16.0913C12.8732 16.0913 12.3211 16.2754 12.3211 15.3762V10.7651C12.3414 10.5278 12.3104 10.2889 12.2302 10.0646C12.15 9.8404 12.0225 9.63604 11.8563 9.46545C11.6902 9.29485 11.4892 9.16202 11.2672 9.07596C11.0451 8.98991 10.8071 8.95265 10.5694 8.96672C10.3326 8.96048 10.0971 9.00466 9.87868 9.09632C9.66023 9.18798 9.46376 9.32503 9.3023 9.49838C9.14084 9.67174 9.01808 9.87744 8.94215 10.1018C8.86622 10.3262 8.83887 10.5642 8.86189 10.8V15.4111C8.86189 16.3103 8.297 16.1263 7.51314 16.1263C6.72928 16.1263 6.17604 16.3103 6.17604 15.4111L6.1772 6.76539Z" stroke="white" stroke-linecap="round" stroke-linejoin="round"/>
</svg>
