<svg width="22" height="21" viewBox="0 0 22 21" fill="none" xmlns="http://www.w3.org/2000/svg">
<path fill-rule="evenodd" clip-rule="evenodd" d="M3.33008 0.25C2.60073 0.25 1.90126 0.539731 1.38553 1.05546C0.86981 1.57118 0.580078 2.27065 0.580078 3C0.580078 3.72935 0.86981 4.42882 1.38553 4.94454C1.90126 5.46027 2.60073 5.75 3.33008 5.75C4.05942 5.75 4.7589 5.46027 5.27462 4.94454C5.79035 4.42882 6.08008 3.72935 6.08008 3C6.08008 2.27065 5.79035 1.57118 5.27462 1.05546C4.7589 0.539731 4.05942 0.25 3.33008 0.25ZM2.08008 3C2.08008 2.66848 2.21177 2.35054 2.44619 2.11612C2.68062 1.8817 2.99856 1.75 3.33008 1.75C3.6616 1.75 3.97954 1.8817 4.21396 2.11612C4.44838 2.35054 4.58008 2.66848 4.58008 3C4.58008 3.33152 4.44838 3.64946 4.21396 3.88388C3.97954 4.1183 3.6616 4.25 3.33008 4.25C2.99856 4.25 2.68062 4.1183 2.44619 3.88388C2.21177 3.64946 2.08008 3.33152 2.08008 3ZM0.580078 7C0.580078 6.80109 0.659096 6.61032 0.799748 6.46967C0.9404 6.32902 1.13117 6.25 1.33008 6.25H5.33008C5.52899 6.25 5.71976 6.32902 5.86041 6.46967C6.00106 6.61032 6.08008 6.80109 6.08008 7V20C6.08008 20.1989 6.00106 20.3897 5.86041 20.5303C5.71976 20.671 5.52899 20.75 5.33008 20.75H1.33008C1.13117 20.75 0.9404 20.671 0.799748 20.5303C0.659096 20.3897 0.580078 20.1989 0.580078 20V7ZM2.08008 7.75V19.25H4.58008V7.75H2.08008ZM7.58008 7C7.58008 6.80109 7.6591 6.61032 7.79975 6.46967C7.9404 6.32902 8.13117 6.25 8.33008 6.25H12.3301C12.529 6.25 12.7198 6.32902 12.8604 6.46967C13.0011 6.61032 13.0801 6.80109 13.0801 7V7.434L13.5151 7.247C14.2651 6.9266 15.0608 6.72583 15.8731 6.652C18.6481 6.4 21.0801 8.58 21.0801 11.38V20C21.0801 20.1989 21.0011 20.3897 20.8604 20.5303C20.7198 20.671 20.529 20.75 20.3301 20.75H16.3301C16.1312 20.75 15.9404 20.671 15.7997 20.5303C15.6591 20.3897 15.5801 20.1989 15.5801 20V13C15.5801 12.6685 15.4484 12.3505 15.214 12.1161C14.9795 11.8817 14.6616 11.75 14.3301 11.75C13.9986 11.75 13.6806 11.8817 13.4462 12.1161C13.2118 12.3505 13.0801 12.6685 13.0801 13V20C13.0801 20.1989 13.0011 20.3897 12.8604 20.5303C12.7198 20.671 12.529 20.75 12.3301 20.75H8.33008C8.13117 20.75 7.9404 20.671 7.79975 20.5303C7.6591 20.3897 7.58008 20.1989 7.58008 20V7ZM9.08008 7.75V19.25H11.5801V13C11.5801 12.2707 11.8698 11.5712 12.3855 11.0555C12.9013 10.5397 13.6007 10.25 14.3301 10.25C15.0594 10.25 15.7589 10.5397 16.2746 11.0555C16.7903 11.5712 17.0801 12.2707 17.0801 13V19.25H19.5801V11.38C19.5801 9.476 17.9191 7.972 16.0101 8.146C15.3542 8.2055 14.7118 8.36747 14.1061 8.626L12.6261 9.261C12.5119 9.31003 12.3874 9.32994 12.2636 9.31893C12.1399 9.30793 12.0208 9.26635 11.9171 9.19794C11.8134 9.12953 11.7283 9.03643 11.6695 8.927C11.6107 8.81757 11.5799 8.69524 11.5801 8.571V7.75H9.08008Z" fill="white"/>
</svg>
