<svg width="46" height="46" viewBox="0 0 46 46" fill="none" xmlns="http://www.w3.org/2000/svg">
<path d="M34.5 20.6041C33.7142 20.6041 33.0625 19.9525 33.0625 19.1666V15.3333C33.0625 9.29581 31.3567 5.27081 23 5.27081C14.6433 5.27081 12.9375 9.29581 12.9375 15.3333V19.1666C12.9375 19.9525 12.2858 20.6041 11.5 20.6041C10.7142 20.6041 10.0625 19.9525 10.0625 19.1666V15.3333C10.0625 9.77498 11.4042 2.39581 23 2.39581C34.5958 2.39581 35.9375 9.77498 35.9375 15.3333V19.1666C35.9375 19.9525 35.2858 20.6041 34.5 20.6041Z" fill="#EA5B0C"/>
<path d="M22.9999 36.8958C19.5691 36.8958 16.7708 34.0975 16.7708 30.6667C16.7708 27.2358 19.5691 24.4375 22.9999 24.4375C26.4308 24.4375 29.2291 27.2358 29.2291 30.6667C29.2291 34.0975 26.4308 36.8958 22.9999 36.8958ZM22.9999 27.3125C21.1599 27.3125 19.6458 28.8267 19.6458 30.6667C19.6458 32.5067 21.1599 34.0208 22.9999 34.0208C24.8399 34.0208 26.3541 32.5067 26.3541 30.6667C26.3541 28.8267 24.8399 27.3125 22.9999 27.3125Z" fill="#EA5B0C"/>
<path d="M32.5833 43.6042H13.4166C4.96409 43.6042 2.39575 41.0359 2.39575 32.5834V28.75C2.39575 20.2975 4.96409 17.7292 13.4166 17.7292H32.5833C41.0358 17.7292 43.6041 20.2975 43.6041 28.75V32.5834C43.6041 41.0359 41.0358 43.6042 32.5833 43.6042ZM13.4166 20.6042C6.55492 20.6042 5.27075 21.9075 5.27075 28.75V32.5834C5.27075 39.4259 6.55492 40.7292 13.4166 40.7292H32.5833C39.4449 40.7292 40.7291 39.4259 40.7291 32.5834V28.75C40.7291 21.9075 39.4449 20.6042 32.5833 20.6042H13.4166Z" fill="#EA5B0C"/>
</svg>
