<svg width="20" height="21" viewBox="0 0 20 21" fill="none" xmlns="http://www.w3.org/2000/svg">
<path d="M17.9412 10.5H7.88235M15.8235 14.0625L19 10.5L15.8235 6.9375M10.5294 4.5625V3.375C10.5294 2.74511 10.3063 2.14102 9.90917 1.69562C9.51203 1.25022 8.9734 1 8.41177 1H3.11765C2.55601 1 2.01738 1.25022 1.62024 1.69562C1.22311 2.14102 1 2.74511 1 3.375V17.625C1 18.2549 1.22311 18.859 1.62024 19.3044C2.01738 19.7498 2.55601 20 3.11765 20H8.41177C8.9734 20 9.51203 19.7498 9.90917 19.3044C10.3063 18.859 10.5294 18.2549 10.5294 17.625V16.4375" stroke="black" stroke-width="2" stroke-linecap="round" stroke-linejoin="round"/>
</svg>
