<svg width="46" height="46" viewBox="0 0 46 46" fill="none" xmlns="http://www.w3.org/2000/svg">
<path d="M30.6667 43.6041H15.3334C9.54508 43.6041 6.22925 40.2883 6.22925 34.5V15.8125C6.22925 9.77498 9.29591 6.70831 15.3334 6.70831C16.1192 6.70831 16.7709 7.35998 16.7709 8.14581C16.7709 8.91248 17.0776 9.64081 17.6143 10.1775C18.1509 10.7141 18.8792 11.0208 19.6459 11.0208H26.3542C27.9451 11.0208 29.2292 9.73665 29.2292 8.14581C29.2292 7.35998 29.8809 6.70831 30.6667 6.70831C36.7042 6.70831 39.7709 9.77498 39.7709 15.8125V34.5C39.7709 40.2883 36.4551 43.6041 30.6667 43.6041ZM14.0875 9.62165C11.0592 9.87082 9.10425 11.2316 9.10425 15.8125V34.5C9.10425 38.755 11.0784 40.7291 15.3334 40.7291H30.6667C34.9217 40.7291 36.8959 38.755 36.8959 34.5V15.8125C36.8959 11.2316 34.941 9.88999 31.9126 9.62165C31.261 12.075 29.0184 13.8958 26.3542 13.8958H19.6459C18.1126 13.8958 16.6751 13.3016 15.5826 12.2091C14.8543 11.4808 14.3559 10.5992 14.0875 9.62165Z" fill="#EA5B0C"/>
<path d="M26.3541 13.8958H19.6458C18.1124 13.8958 16.6749 13.3016 15.5824 12.2091C14.4899 11.1166 13.8958 9.67915 13.8958 8.14581C13.8958 4.98331 16.4833 2.39581 19.6458 2.39581H26.3541C27.8874 2.39581 29.3249 2.98999 30.4174 4.08249C31.5099 5.17499 32.1041 6.61248 32.1041 8.14581C32.1041 11.3083 29.5166 13.8958 26.3541 13.8958ZM19.6458 5.27081C18.0549 5.27081 16.7708 6.55498 16.7708 8.14581C16.7708 8.91248 17.0774 9.64081 17.6141 10.1775C18.1508 10.7141 18.8791 11.0208 19.6458 11.0208H26.3541C27.9449 11.0208 29.2291 9.73665 29.2291 8.14581C29.2291 7.37915 28.9224 6.65082 28.3857 6.11415C27.8491 5.57748 27.1208 5.27081 26.3541 5.27081H19.6458Z" fill="#EA5B0C"/>
<path d="M22.9999 26.3542H15.3333C14.5474 26.3542 13.8958 25.7025 13.8958 24.9167C13.8958 24.1309 14.5474 23.4792 15.3333 23.4792H22.9999C23.7858 23.4792 24.4374 24.1309 24.4374 24.9167C24.4374 25.7025 23.7858 26.3542 22.9999 26.3542Z" fill="#EA5B0C"/>
<path d="M30.6666 34.0208H15.3333C14.5474 34.0208 13.8958 33.3691 13.8958 32.5833C13.8958 31.7975 14.5474 31.1458 15.3333 31.1458H30.6666C31.4524 31.1458 32.1041 31.7975 32.1041 32.5833C32.1041 33.3691 31.4524 34.0208 30.6666 34.0208Z" fill="#EA5B0C"/>
</svg>
