<svg width="48" height="49" viewBox="0 0 48 49" fill="none" xmlns="http://www.w3.org/2000/svg">
<path d="M21.8442 26.2774C22.4068 26.2774 22.8788 26.0868 23.2601 25.7055C23.6414 25.3242 23.8314 24.8529 23.83 24.2916C23.8287 23.7302 23.6381 23.2589 23.2581 22.8777C22.8782 22.4964 22.4068 22.3057 21.8442 22.3057C21.2815 22.3057 20.8102 22.4964 20.4303 22.8777C20.0503 23.2589 19.8597 23.7302 19.8584 24.2916C19.857 24.8529 20.0477 25.3249 20.4303 25.7075C20.8129 26.0901 21.2842 26.28 21.8442 26.2774ZM13.9009 42.1641V38.1924L25.8159 36.2066V14.1142C25.8159 13.6177 25.6669 13.1709 25.369 12.7737C25.0712 12.3766 24.6906 12.1449 24.2272 12.0787L13.9009 10.3907V6.41907L24.8229 8.20632C26.2792 8.4711 27.4707 9.14959 28.3974 10.2418C29.3242 11.334 29.7875 12.6082 29.7875 14.0645V36.1073C29.7875 37.0671 29.4731 37.9197 28.8443 38.665C28.2154 39.4104 27.4211 39.8651 26.4613 40.0293L13.9009 42.1641ZM13.9009 38.1924H33.7592V10.3907H13.9009V38.1924ZM7.94336 42.1641C7.38071 42.1641 6.9094 41.9734 6.52945 41.5921C6.14949 41.2109 5.95885 40.7396 5.95753 40.1782C5.9562 39.6169 6.14684 39.1456 6.52945 38.7643C6.91205 38.383 7.38335 38.1924 7.94336 38.1924H9.92919V10.3907C9.92919 9.29853 10.3184 8.36386 11.0969 7.58674C11.8753 6.80961 12.81 6.42039 13.9009 6.41907H33.7592C34.8514 6.41907 35.7867 6.80829 36.5652 7.58674C37.3436 8.36518 37.7322 9.29985 37.7309 10.3907V38.1924H39.7167C40.2793 38.1924 40.7513 38.383 41.1326 38.7643C41.5139 39.1456 41.7038 39.6169 41.7025 40.1782C41.7012 40.7396 41.5106 41.2115 41.1306 41.5941C40.7506 41.9767 40.2793 42.1667 39.7167 42.1641H7.94336Z" fill="#EA5B0C"/>
</svg>
