<svg width="49" height="49" viewBox="0 0 49 49" fill="none" xmlns="http://www.w3.org/2000/svg">
<path d="M6.84302 42.4068V38.4354H10.8145V10.6353C10.8145 9.54311 11.2037 8.6085 11.9821 7.83142C12.7605 7.05434 13.6951 6.66514 14.7859 6.66382H34.6431C35.7353 6.66382 36.6705 7.05302 37.4489 7.83142C38.2273 8.60983 38.6159 9.54444 38.6146 10.6353V38.4354H42.586V42.4068H6.84302ZM30.6717 38.4354H34.6431V10.6353H25.7074V8.45097C27.1636 8.71573 28.355 9.39419 29.2817 10.4863C30.2083 11.5785 30.6717 12.8527 30.6717 14.3088V38.4354ZM22.7288 26.521C23.2914 26.521 23.7634 26.3304 24.1446 25.9491C24.5259 25.5679 24.7158 25.0966 24.7145 24.5353C24.7132 23.974 24.5226 23.5027 24.1426 23.1215C23.7627 22.7402 23.2914 22.5496 22.7288 22.5496C22.1662 22.5496 21.6949 22.7402 21.315 23.1215C20.935 23.5027 20.7444 23.974 20.7431 24.5353C20.7417 25.0966 20.9324 25.5686 21.315 25.9511C21.6975 26.3337 22.1688 26.5237 22.7288 26.521Z" fill="#EA5B0C"/>
</svg>
