<svg width="16" height="21" viewBox="0 0 16 21" fill="none" xmlns="http://www.w3.org/2000/svg">
<path d="M7 15.5H9V9.5H7V15.5ZM8 7.5C8.28333 7.5 8.521 7.404 8.713 7.212C8.905 7.02 9.00067 6.78267 9 6.5C8.99933 6.21733 8.90333 5.98 8.712 5.788C8.52067 5.596 8.28333 5.5 8 5.5C7.71667 5.5 7.47933 5.596 7.288 5.788C7.09667 5.98 7.00067 6.21733 7 6.5C6.99933 6.78267 7.09533 7.02033 7.288 7.213C7.48067 7.40567 7.718 7.50133 8 7.5ZM8 20.5C5.68333 19.9167 3.77067 18.5873 2.262 16.512C0.753334 14.4367 -0.000666225 12.1327 4.41696e-07 9.6V3.5L8 0.5L16 3.5V9.6C16 12.1333 15.246 14.4377 13.738 16.513C12.23 18.5883 10.3173 19.9173 8 20.5ZM8 18.4C9.73333 17.85 11.1667 16.75 12.3 15.1C13.4333 13.45 14 11.6167 14 9.6V4.875L8 2.625L2 4.875V9.6C2 11.6167 2.56667 13.45 3.7 15.1C4.83333 16.75 6.26667 17.85 8 18.4Z" fill="black"/>
</svg>
