<svg width="20" height="21" viewBox="0 0 20 21" fill="none" xmlns="http://www.w3.org/2000/svg">
<path d="M1 20H19M2.87425 11.7531C2.39457 12.2042 2.12512 12.8153 2.125 13.4525V16.8334H5.75087C6.43037 16.8334 7.08175 16.5801 7.56213 16.1283L18.2496 6.09543C18.7291 5.64429 18.9984 5.03315 18.9984 4.39601C18.9984 3.75888 18.7291 3.14774 18.2496 2.6966L17.1944 1.7044C16.9564 1.48099 16.6738 1.30379 16.3628 1.18293C16.0518 1.06206 15.7184 0.999902 15.3818 1C15.0451 1.0001 14.7118 1.06245 14.4009 1.1835C14.0899 1.30455 13.8075 1.48191 13.5696 1.70545L2.87425 11.7531Z" stroke="black" stroke-width="1.875" stroke-linecap="round" stroke-linejoin="round"/>
</svg>
