<svg width="47" height="47" viewBox="0 0 47 47" fill="none" xmlns="http://www.w3.org/2000/svg">
<path d="M21.5076 17.7795C21.5076 17.2676 21.7109 16.7767 22.0729 16.4148C22.4348 16.0528 22.9257 15.8495 23.4376 15.8495C23.9494 15.8495 24.4403 16.0528 24.8023 16.4148C25.1642 16.7767 25.3676 17.2676 25.3676 17.7795C25.3676 18.2914 25.1642 18.7823 24.8023 19.1442C24.4403 19.5061 23.9494 19.7095 23.4376 19.7095C22.9257 19.7095 22.4348 19.5061 22.0729 19.1442C21.7109 18.7823 21.5076 18.2914 21.5076 17.7795Z" fill="#EA5B0C"/>
<path fill-rule="evenodd" clip-rule="evenodd" d="M19.3769 6.29796C19.861 5.68433 20.4779 5.18841 21.1812 4.84745C21.8846 4.50648 22.656 4.32935 23.4376 4.32935C24.2192 4.32935 24.9907 4.50648 25.694 4.84745C26.3973 5.18841 27.0142 5.68433 27.4983 6.29796C27.782 6.65694 28.2317 6.84222 28.6853 6.79011C29.4615 6.69841 30.2484 6.78382 30.9868 7.03992C31.7253 7.29602 32.3961 7.71615 32.9489 8.26874C33.5017 8.82132 33.922 9.492 34.1784 10.2304C34.4347 10.9687 34.5204 11.7556 34.429 12.5319C34.4021 12.7551 34.4331 12.9815 34.519 13.1894C34.6048 13.3972 34.7426 13.5795 34.9192 13.7188C35.5328 14.2029 36.0287 14.8198 36.3697 15.5232C36.7107 16.2265 36.8878 16.9979 36.8878 17.7795C36.8878 18.5611 36.7107 19.3326 36.3697 20.0359C36.0287 20.7392 35.5328 21.3561 34.9192 21.8402C34.7426 21.9795 34.6048 22.1618 34.519 22.3697C34.4331 22.5775 34.4021 22.8039 34.429 23.0272C34.5207 23.8036 34.4353 24.5907 34.1791 25.3293C33.9229 26.0679 33.5026 26.7388 32.9497 27.2917C32.3969 27.8445 31.726 28.2648 30.9874 28.521C30.2488 28.7772 29.4617 28.8626 28.6853 28.7709C28.462 28.7441 28.2356 28.775 28.0277 28.8609C27.8199 28.9467 27.6376 29.0845 27.4983 29.2611C27.0138 29.8741 26.3967 30.3694 25.6935 30.7099C24.9902 31.0504 24.219 31.2273 23.4376 31.2273C22.6562 31.2273 21.885 31.0504 21.1817 30.7099C20.4785 30.3694 19.8614 29.8741 19.3769 29.2611C19.238 29.0845 19.0561 28.9465 18.8486 28.8603C18.6411 28.7742 18.415 28.7427 18.1919 28.7689C17.4157 28.8606 16.6288 28.7752 15.8903 28.5191C15.1518 28.263 14.481 27.8429 13.9282 27.2903C13.3755 26.7377 12.9551 26.0671 12.6988 25.3287C12.4424 24.5903 12.3568 23.8034 12.4482 23.0272C12.4748 22.8038 12.4435 22.5772 12.3573 22.3694C12.2711 22.1615 12.1329 21.9793 11.956 21.8402C11.3424 21.3561 10.8465 20.7392 10.5055 20.0359C10.1646 19.3326 9.98743 18.5611 9.98743 17.7795C9.98743 16.9979 10.1646 16.2265 10.5055 15.5232C10.8465 14.8198 11.3424 14.2029 11.956 13.7188C12.1329 13.5797 12.2711 13.3975 12.3573 13.1897C12.4435 12.9818 12.4748 12.7553 12.4482 12.5319C12.3568 11.7556 12.4424 10.9687 12.6988 10.2304C12.9551 9.492 13.3755 8.82132 13.9282 8.26874C14.481 7.71615 15.1518 7.29602 15.8903 7.03992C16.6288 6.78382 17.4157 6.69841 18.1919 6.79011C18.415 6.81636 18.6411 6.7849 18.8486 6.69873C19.0561 6.61256 19.238 6.47456 19.3769 6.29796ZM23.4376 11.9895C21.902 11.9895 20.4293 12.5995 19.3435 13.6854C18.2576 14.7712 17.6476 16.2439 17.6476 17.7795C17.6476 19.3151 18.2576 20.7878 19.3435 21.8737C20.4293 22.9595 21.902 23.5695 23.4376 23.5695C24.9732 23.5695 26.4459 22.9595 27.5318 21.8737C28.6176 20.7878 29.2276 19.3151 29.2276 17.7795C29.2276 16.2439 28.6176 14.7712 27.5318 13.6854C26.4459 12.5995 24.9732 11.9895 23.4376 11.9895Z" fill="#EA5B0C"/>
<path d="M10.6899 29.4657L8.13269 37.0795C8.01853 37.4196 8.00141 37.7848 8.08325 38.1341C8.16509 38.4833 8.34266 38.8029 8.59602 39.0568C8.84938 39.3108 9.1685 39.4891 9.51758 39.5718C9.86665 39.6545 10.2319 39.6382 10.5722 39.5249L14.3357 38.2704L16.5436 41.5649C16.7432 41.8614 17.0212 42.0966 17.3466 42.2444C17.6721 42.3922 18.0321 42.4467 18.3867 42.4019C18.7413 42.3571 19.0765 42.2147 19.3549 41.9906C19.6334 41.7664 19.8441 41.4694 19.9636 41.1325L22.1252 34.9951C20.3063 34.7344 18.6117 33.9204 17.2712 32.6637C16.0114 32.6209 14.7746 32.3144 13.6407 31.7639C12.5067 31.2134 11.5008 30.4311 10.688 29.4676L10.6899 29.4657ZM24.7191 34.999L26.8807 41.1306C27 41.4679 27.2107 41.7654 27.4893 41.9899C27.7679 42.2144 28.1034 42.357 28.4584 42.4019C28.8133 42.4467 29.1737 42.392 29.4994 42.2439C29.8251 42.0957 30.1032 41.86 30.3026 41.5629L32.5105 38.2684L36.274 39.5229C36.6142 39.6361 36.9791 39.6522 37.3279 39.5696C37.6767 39.487 37.9957 39.3089 38.2489 39.0552C38.5022 38.8015 38.6798 38.4823 38.7619 38.1334C38.844 37.7844 38.8272 37.4195 38.7135 37.0795L36.1659 29.4946C35.353 30.4506 34.3495 31.2262 33.2195 31.7719C32.0895 32.3176 30.8581 32.6214 29.6039 32.6637C28.2561 33.9272 26.5506 34.7429 24.721 34.999H24.7191Z" fill="#EA5B0C"/>
</svg>
