<svg width="49" height="49" viewBox="0 0 49 49" fill="none" xmlns="http://www.w3.org/2000/svg">
<path d="M24.2042 40.4211C24.3366 40.4211 24.4689 40.388 24.6013 40.3218C24.7337 40.2556 24.833 40.1894 24.8992 40.1232L41.1821 23.8403C41.5792 23.4432 41.8692 22.9964 42.0518 22.5C42.2345 22.0035 42.3252 21.5071 42.3239 21.0107C42.3239 20.4811 42.2332 19.9761 42.0518 19.4956C41.8705 19.015 41.5806 18.5934 41.1821 18.2306L32.7428 9.79133C32.3787 9.39419 31.9564 9.10494 31.4759 8.92357C30.9953 8.74221 30.4916 8.65087 29.9648 8.64954C29.4683 8.64954 28.9719 8.74089 28.4755 8.92357C27.979 9.10626 27.5322 9.39551 27.1351 9.79133L26.589 10.3374L30.2626 14.0606C30.759 14.524 31.1231 15.0535 31.3548 15.6492C31.5864 16.2449 31.7023 16.8737 31.7023 17.5356C31.7023 18.9257 31.231 20.0926 30.2884 21.0365C29.3459 21.9804 28.1789 22.4516 26.7876 22.4503C26.1257 22.4503 25.4889 22.3345 24.8773 22.1028C24.2657 21.8711 23.7276 21.5236 23.2629 21.0603L19.5377 17.3867L10.8502 26.0742C10.7509 26.1735 10.6768 26.2814 10.6278 26.3979C10.5788 26.5144 10.5537 26.6382 10.5523 26.7693C10.5523 27.034 10.6516 27.2743 10.8502 27.4901C11.0488 27.7058 11.2804 27.8131 11.5452 27.8118C11.6776 27.8118 11.81 27.7787 11.9423 27.7125C12.0747 27.6463 12.174 27.5801 12.2402 27.5139L18.9917 20.7624L21.7717 23.5425L15.0699 30.2939C14.9706 30.3932 14.8964 30.5011 14.8475 30.6176C14.7985 30.7341 14.7733 30.8579 14.772 30.9889C14.772 31.2537 14.8713 31.4853 15.0699 31.6839C15.2684 31.8825 15.5001 31.9818 15.7649 31.9818C15.8972 31.9818 16.0296 31.9487 16.162 31.8825C16.2944 31.8163 16.3937 31.7501 16.4599 31.6839L23.2113 24.9821L25.9913 27.7621L19.2895 34.5136C19.1902 34.5798 19.1161 34.679 19.0671 34.8114C19.0181 34.9438 18.993 35.0762 18.9917 35.2086C18.9917 35.4733 19.0909 35.705 19.2895 35.9036C19.4881 36.1021 19.7198 36.2014 19.9845 36.2014C20.1169 36.2014 20.2413 36.1763 20.3578 36.126C20.4743 36.0757 20.5816 36.0015 20.6795 35.9036L27.431 29.2018L30.211 31.9818L23.4595 38.7332C23.3602 38.8325 23.2861 38.9397 23.2371 39.0549C23.1882 39.1701 23.163 39.2945 23.1617 39.4282C23.1617 39.693 23.2696 39.9247 23.4853 40.1232C23.7011 40.3218 23.9407 40.4211 24.2042 40.4211ZM24.1545 44.3925C22.93 44.3925 21.8465 43.9874 20.9039 43.1773C19.9614 42.3671 19.4067 41.3491 19.2399 40.1232C18.1146 39.9578 17.1714 39.4944 16.4102 38.7332C15.649 37.972 15.1857 37.0288 15.0202 35.9036C13.895 35.7381 12.9604 35.2668 12.2164 34.4897C11.4724 33.7127 11.017 32.7774 10.8502 31.6839C9.59258 31.5184 8.56662 30.9724 7.77233 30.0457C6.97804 29.119 6.5809 28.0269 6.5809 26.7693C6.5809 26.1073 6.70534 25.4706 6.95422 24.859C7.20309 24.2474 7.55854 23.7093 8.02055 23.2446L19.5377 11.7771L26.041 18.2803C26.1072 18.3796 26.2064 18.4544 26.3388 18.5047C26.4712 18.555 26.6036 18.5795 26.736 18.5781C27.0338 18.5781 27.282 18.4875 27.4806 18.3061C27.6792 18.1247 27.7785 17.8845 27.7785 17.5853C27.7785 17.4529 27.7533 17.3205 27.703 17.1881C27.6527 17.0558 27.5786 16.9565 27.4806 16.8903L20.3817 9.79133C20.0176 9.39419 19.596 9.10494 19.1168 8.92357C18.6375 8.74221 18.1325 8.65087 17.6017 8.64954C17.1052 8.64954 16.6088 8.74089 16.1124 8.92357C15.6159 9.10626 15.1691 9.39551 14.772 9.79133L7.77233 16.8406C7.47447 17.1385 7.22626 17.486 7.02769 17.8831C6.82911 18.2803 6.69673 18.6774 6.63054 19.0746C6.56435 19.4717 6.56435 19.8775 6.63054 20.2918C6.69673 20.7062 6.82911 21.0947 7.02769 21.4574L4.14839 24.3367C3.58577 23.5755 3.17208 22.7402 2.90732 21.8308C2.64255 20.9213 2.54327 20.0026 2.60946 19.0746C2.67565 18.1466 2.90732 17.2451 3.30446 16.37C3.7016 15.495 4.24768 14.7086 4.94268 14.011L11.9423 7.01132C12.7366 6.25013 13.6223 5.67096 14.5992 5.27382C15.5762 4.87667 16.577 4.6781 17.6017 4.6781C18.6263 4.6781 19.6278 4.87667 20.6061 5.27382C21.5843 5.67096 22.4528 6.25013 23.2113 7.01132L23.7574 7.5574L24.3035 7.01132C25.0978 6.25013 25.9834 5.67096 26.9604 5.27382C27.9373 4.87667 28.9381 4.6781 29.9628 4.6781C30.9874 4.6781 31.9889 4.87667 32.9672 5.27382C33.9455 5.67096 34.8139 6.25013 35.5724 7.01132L43.9621 15.401C44.7233 16.1622 45.3025 17.0392 45.6996 18.0321C46.0968 19.0249 46.2953 20.0343 46.2953 21.0603C46.2953 22.0863 46.0968 23.0877 45.6996 24.0647C45.3025 25.0417 44.7233 25.9101 43.9621 26.67L27.6792 42.9032C27.2159 43.3666 26.6784 43.7306 26.0668 43.9954C25.4552 44.2601 24.8178 44.3925 24.1545 44.3925Z" fill="#EA5B0C"/>
</svg>
