<svg width="49" height="49" viewBox="0 0 49 49" fill="none" xmlns="http://www.w3.org/2000/svg">
<path d="M10.5524 18.3778C10.5524 14.6913 12.0168 11.1558 14.6236 8.54901C17.2304 5.94225 20.7659 4.47778 24.4524 4.47778C28.139 4.47778 31.6745 5.94225 34.2812 8.54901C36.888 11.1558 38.3525 14.6913 38.3525 18.3778V20.4331C41.7203 20.9156 44.3096 23.8128 44.3096 27.3136V27.81C44.3096 31.3347 41.2695 34.4244 37.6932 34.2596C36.2238 38.4694 32.4867 41.307 28.4537 42.0258C27.5204 42.3673 26.4163 42.2065 25.4453 42.2065C24.6553 42.2065 23.8977 41.8927 23.3391 41.3341C22.7805 40.7755 22.4667 40.0179 22.4667 39.2279C22.4667 38.4379 22.7805 37.6803 23.3391 37.1217C23.8977 36.5631 24.6553 36.2493 25.4453 36.2493C27.02 36.2493 28.7634 36.021 29.8278 37.4586C32.4013 36.2334 34.381 33.646 34.381 30.2922V18.3778C34.381 15.7446 33.335 13.2192 31.473 11.3572C29.611 9.49527 27.0857 8.44923 24.4524 8.44923C21.8192 8.44923 19.2938 9.49527 17.4318 11.3572C15.5699 13.2192 14.5238 15.7446 14.5238 18.3778V30.7886C14.5238 31.7102 14.1577 32.5941 13.506 33.2458C12.8543 33.8975 11.9704 34.2636 11.0488 34.2636C9.33721 34.2636 7.69571 33.5837 6.48543 32.3734C5.27515 31.1631 4.59522 29.5216 4.59522 27.81V27.3136C4.59479 25.642 5.19681 24.0263 6.29093 22.7626C7.38505 21.4989 8.89797 20.6719 10.5524 20.4331V18.3778Z" fill="#EA5B0C"/>
</svg>
