<svg width="61" height="60" viewBox="0 0 61 60" fill="none" xmlns="http://www.w3.org/2000/svg">
<path d="M36.4495 56.8749H24.5494C15.0994 56.8749 7.67441 50.9249 5.62441 41.6999L4.59948 37.05C3.89948 33.85 5.72441 30.4 8.74941 29.175L26.0745 22.225C28.9245 21.1 32.0744 21.1 34.9244 22.225L52.2495 29.175C55.2995 30.4 57.1244 33.85 56.3994 37.05L55.3745 41.6999C53.3245 50.9249 45.8995 56.8749 36.4495 56.8749ZM30.4994 25.1249C29.4744 25.1249 28.4494 25.3249 27.4494 25.6999L10.1245 32.6499C8.79946 33.1749 7.92443 34.8499 8.22443 36.2249L9.24944 40.875C10.9244 48.425 16.7744 53.0999 24.5244 53.0999H36.4244C44.1744 53.0999 50.0245 48.425 51.6995 40.875L52.7245 36.2249C53.0245 34.8499 52.1495 33.1749 50.8245 32.6499L33.4995 25.6999C32.5495 25.3249 31.5244 25.1249 30.4994 25.1249Z" fill="#2B2B2B"/>
<path d="M30.5 56.875C29.475 56.875 28.625 56.025 28.625 55V25C28.625 23.975 29.475 23.125 30.5 23.125C31.525 23.125 32.375 23.975 32.375 25V55C32.375 56.025 31.525 56.875 30.5 56.875Z" fill="#2B2B2B"/>
<path d="M48.0006 31.375C47.7756 31.375 47.5256 31.325 47.3006 31.25L33.5256 25.725C31.5756 24.95 29.4256 24.95 27.4506 25.725L13.6756 31.25C13.1006 31.475 12.4506 31.4 11.9256 31.05C11.4006 30.7 11.1006 30.125 11.1006 29.5V20C11.1006 14.825 15.3006 10.625 20.4756 10.625H40.4756C45.6506 10.625 49.8506 14.825 49.8506 20V29.5C49.8506 30.125 49.5506 30.7 49.0256 31.05C48.7256 31.275 48.3756 31.375 48.0006 31.375ZM30.5006 21.375C32.0006 21.375 33.5006 21.65 34.9256 22.225L46.1256 26.725V20C46.1256 16.9 43.6006 14.375 40.5006 14.375H20.5006C17.4006 14.375 14.8756 16.9 14.8756 20V26.725L26.0756 22.225C27.5006 21.675 29.0006 21.375 30.5006 21.375Z" fill="#2B2B2B"/>
<path d="M36.75 14.375H24.25C23.225 14.375 22.375 13.525 22.375 12.5V7.5C22.375 5.1 24.35 3.125 26.75 3.125H34.25C36.65 3.125 38.625 5.1 38.625 7.5V12.5C38.625 13.525 37.775 14.375 36.75 14.375ZM26.125 10.625H34.875V7.5C34.875 7.15 34.6 6.875 34.25 6.875H26.75C26.4 6.875 26.125 7.15 26.125 7.5V10.625Z" fill="#2B2B2B"/>
</svg>
