<svg width="46" height="46" viewBox="0 0 46 46" fill="none" xmlns="http://www.w3.org/2000/svg">
<path d="M27.5613 43.6041H18.438C11.193 43.6041 5.50046 39.0424 3.9288 31.9699L3.14302 28.405C2.60635 25.9516 4.00546 23.3066 6.32463 22.3675L19.6072 17.0391C21.7922 16.1766 24.2071 16.1766 26.3921 17.0391L39.6747 22.3675C42.013 23.3066 43.4121 25.9516 42.8563 28.405L42.0705 31.9699C40.4988 39.0424 34.8063 43.6041 27.5613 43.6041ZM22.9997 19.2624C22.2138 19.2624 21.428 19.4158 20.6613 19.7033L7.37883 25.0316C6.363 25.4341 5.69215 26.7183 5.92215 27.7724L6.70799 31.3375C7.99215 37.1258 12.4771 40.7099 18.4188 40.7099H27.5421C33.4838 40.7099 37.9688 37.1258 39.253 31.3375L40.0388 27.7724C40.2688 26.7183 39.598 25.4341 38.5822 25.0316L25.2997 19.7033C24.5713 19.4158 23.7855 19.2624 22.9997 19.2624Z" fill="#EA5B0C"/>
<path d="M23 43.6042C22.2142 43.6042 21.5625 42.9525 21.5625 42.1667V19.1667C21.5625 18.3809 22.2142 17.7292 23 17.7292C23.7858 17.7292 24.4375 18.3809 24.4375 19.1667V42.1667C24.4375 42.9525 23.7858 43.6042 23 43.6042Z" fill="#EA5B0C"/>
<path d="M36.4172 24.0541C36.2447 24.0541 36.0531 24.0158 35.8806 23.9583L25.3197 19.7225C23.8247 19.1283 22.1764 19.1283 20.6622 19.7225L10.1014 23.9583C9.66053 24.1308 9.16223 24.0733 8.75973 23.805C8.35723 23.5367 8.1272 23.0958 8.1272 22.6166V15.3333C8.1272 11.3658 11.3472 8.14581 15.3147 8.14581H30.648C34.6155 8.14581 37.8355 11.3658 37.8355 15.3333V22.6166C37.8355 23.0958 37.6056 23.5367 37.2031 23.805C36.9731 23.9775 36.7047 24.0541 36.4172 24.0541ZM23.0005 16.3875C24.1505 16.3875 25.3005 16.5983 26.393 17.0392L34.9797 20.4892V15.3333C34.9797 12.9566 33.0439 11.0208 30.6672 11.0208H15.3339C12.9572 11.0208 11.0214 12.9566 11.0214 15.3333V20.4892L19.6081 17.0392C20.7006 16.6175 21.8505 16.3875 23.0005 16.3875Z" fill="#EA5B0C"/>
<path d="M27.7916 11.0208H18.2083C17.4224 11.0208 16.7708 10.3691 16.7708 9.58331V5.74998C16.7708 3.90998 18.2849 2.39581 20.1249 2.39581H25.8749C27.7149 2.39581 29.2291 3.90998 29.2291 5.74998V9.58331C29.2291 10.3691 28.5774 11.0208 27.7916 11.0208ZM19.6458 8.14581H26.3541V5.74998C26.3541 5.48165 26.1433 5.27081 25.8749 5.27081H20.1249C19.8566 5.27081 19.6458 5.48165 19.6458 5.74998V8.14581Z" fill="#EA5B0C"/>
</svg>
