<svg width="46" height="46" viewBox="0 0 46 46" fill="none" xmlns="http://www.w3.org/2000/svg">
<path d="M23.0001 43.6042C12.9567 43.6042 4.79175 35.4392 4.79175 25.3958C4.79175 15.3525 12.9567 7.1875 23.0001 7.1875C33.0434 7.1875 41.2084 15.3525 41.2084 25.3958C41.2084 35.4392 33.0434 43.6042 23.0001 43.6042ZM23.0001 10.0625C14.5476 10.0625 7.66675 16.9433 7.66675 25.3958C7.66675 33.8483 14.5476 40.7292 23.0001 40.7292C31.4526 40.7292 38.3334 33.8483 38.3334 25.3958C38.3334 16.9433 31.4526 10.0625 23.0001 10.0625Z" fill="#EA5B0C"/>
<path d="M23 26.3541C22.2142 26.3541 21.5625 25.7025 21.5625 24.9166V15.3333C21.5625 14.5475 22.2142 13.8958 23 13.8958C23.7858 13.8958 24.4375 14.5475 24.4375 15.3333V24.9166C24.4375 25.7025 23.7858 26.3541 23 26.3541Z" fill="#EA5B0C"/>
<path d="M28.75 5.27081H17.25C16.4642 5.27081 15.8125 4.61915 15.8125 3.83331C15.8125 3.04748 16.4642 2.39581 17.25 2.39581H28.75C29.5358 2.39581 30.1875 3.04748 30.1875 3.83331C30.1875 4.61915 29.5358 5.27081 28.75 5.27081Z" fill="#EA5B0C"/>
</svg>
