<svg width="61" height="60" viewBox="0 0 61 60" fill="none" xmlns="http://www.w3.org/2000/svg">
<path d="M30.5 34.375C29.475 34.375 28.625 33.525 28.625 32.5V20C28.625 18.975 29.475 18.125 30.5 18.125C31.525 18.125 32.375 18.975 32.375 20V32.5C32.375 33.525 31.525 34.375 30.5 34.375Z" fill="#2B2B2B"/>
<path d="M30.5 56.875C17.4 56.875 6.75 46.225 6.75 33.125C6.75 20.025 17.4 9.375 30.5 9.375C43.6 9.375 54.25 20.025 54.25 33.125C54.25 34.15 53.4 35 52.375 35C51.35 35 50.5 34.15 50.5 33.125C50.5 22.1 41.525 13.125 30.5 13.125C19.475 13.125 10.5 22.1 10.5 33.125C10.5 44.15 19.475 53.125 30.5 53.125C31.525 53.125 32.375 53.975 32.375 55C32.375 56.025 31.525 56.875 30.5 56.875Z" fill="#2B2B2B"/>
<path d="M38 6.875H23C21.975 6.875 21.125 6.025 21.125 5C21.125 3.975 21.975 3.125 23 3.125H38C39.025 3.125 39.875 3.975 39.875 5C39.875 6.025 39.025 6.875 38 6.875Z" fill="#2B2B2B"/>
<path d="M40.875 55.05C40 55.05 39.2 54.85 38.475 54.425C36.825 53.475 35.875 51.55 35.875 49.15V43.375C35.875 40.975 36.825 39.05 38.475 38.1C40.125 37.15 42.25 37.3 44.325 38.475L49.325 41.375C51.4 42.575 52.6 44.35 52.6 46.25C52.6 48.15 51.4 49.925 49.325 51.125L44.325 54.025C43.175 54.7 42 55.05 40.875 55.05ZM40.9 41.2C40.7 41.2 40.5 41.25 40.35 41.325C39.9 41.575 39.625 42.35 39.625 43.35V49.125C39.625 50.125 39.9 50.9 40.35 51.15C40.8 51.4 41.6 51.275 42.45 50.775L47.45 47.875C48.325 47.375 48.85 46.75 48.85 46.25C48.85 45.75 48.325 45.125 47.45 44.625L42.45 41.725C41.875 41.375 41.325 41.2 40.9 41.2Z" fill="#2B2B2B"/>
</svg>
