<svg width="46" height="46" viewBox="0 0 46 46" fill="none" xmlns="http://www.w3.org/2000/svg">
<path d="M24.9163 28.2708H22.9997C22.2138 28.2708 21.5622 27.6191 21.5622 26.8333C21.5622 26.0475 22.2138 25.3958 22.9997 25.3958H24.9163C26.2388 25.3958 27.3122 24.3225 27.3122 23V5.27081H11.4997C9.23799 5.27081 7.16794 6.49745 6.05627 8.47161C5.67294 9.16161 4.79135 9.41085 4.10135 9.02752C3.41135 8.64419 3.16211 7.76248 3.54544 7.07248C5.15544 4.19748 8.20299 2.39581 11.4997 2.39581H28.7497C29.5355 2.39581 30.1872 3.04748 30.1872 3.83331V23C30.1872 25.9133 27.8297 28.2708 24.9163 28.2708Z" fill="#EA5B0C"/>
<path d="M36.4166 39.7708H34.4999C33.7141 39.7708 33.0624 39.1191 33.0624 38.3333C33.0624 37.0108 31.9891 35.9375 30.6666 35.9375C29.3441 35.9375 28.2708 37.0108 28.2708 38.3333C28.2708 39.1191 27.6191 39.7708 26.8333 39.7708H19.1666C18.3808 39.7708 17.7291 39.1191 17.7291 38.3333C17.7291 37.0108 16.6558 35.9375 15.3333 35.9375C14.0108 35.9375 12.9374 37.0108 12.9374 38.3333C12.9374 39.1191 12.2858 39.7708 11.4999 39.7708H9.58325C5.61575 39.7708 2.39575 36.5508 2.39575 32.5833C2.39575 31.7975 3.04742 31.1458 3.83325 31.1458C4.61909 31.1458 5.27075 31.7975 5.27075 32.5833C5.27075 34.96 7.20659 36.8958 9.58325 36.8958H10.254C10.8865 34.6916 12.9183 33.0625 15.3333 33.0625C17.7483 33.0625 19.78 34.6916 20.4125 36.8958H25.6066C26.2391 34.6916 28.2708 33.0625 30.6858 33.0625C33.1008 33.0625 35.1324 34.6916 35.7649 36.8958H36.4166C38.7933 36.8958 40.7291 34.96 40.7291 32.5833V28.2708H36.4166C34.5766 28.2708 33.0624 26.7566 33.0624 24.9166V19.1666C33.0624 17.3266 34.5574 15.8125 36.4166 15.8125L34.3657 12.2283C33.9441 11.4808 33.1391 11.0208 32.2766 11.0208H30.1874V23C30.1874 25.9133 27.8299 28.2708 24.9166 28.2708H22.9999C22.2141 28.2708 21.5624 27.6191 21.5624 26.8333C21.5624 26.0475 22.2141 25.3958 22.9999 25.3958H24.9166C26.2391 25.3958 27.3124 24.3225 27.3124 23V9.58331C27.3124 8.79748 27.9641 8.14581 28.7499 8.14581H32.2766C34.1741 8.14581 35.9182 9.16167 36.8574 10.81L40.1349 16.5408C40.3841 16.9817 40.3841 17.5375 40.1349 17.9783C39.8858 18.4192 39.4065 18.6875 38.889 18.6875H36.4166C36.1483 18.6875 35.9374 18.8983 35.9374 19.1666V24.9166C35.9374 25.185 36.1483 25.3958 36.4166 25.3958H42.1666C42.9524 25.3958 43.6041 26.0475 43.6041 26.8333V32.5833C43.6041 36.5508 40.3841 39.7708 36.4166 39.7708Z" fill="#EA5B0C"/>
<path d="M15.3333 43.6042C12.42 43.6042 10.0625 41.2467 10.0625 38.3333C10.0625 35.42 12.42 33.0625 15.3333 33.0625C18.2467 33.0625 20.6042 35.42 20.6042 38.3333C20.6042 41.2467 18.2467 43.6042 15.3333 43.6042ZM15.3333 35.9375C14.0108 35.9375 12.9375 37.0108 12.9375 38.3333C12.9375 39.6558 14.0108 40.7292 15.3333 40.7292C16.6558 40.7292 17.7292 39.6558 17.7292 38.3333C17.7292 37.0108 16.6558 35.9375 15.3333 35.9375Z" fill="#EA5B0C"/>
<path d="M30.6666 43.6042C27.7533 43.6042 25.3958 41.2467 25.3958 38.3333C25.3958 35.42 27.7533 33.0625 30.6666 33.0625C33.5799 33.0625 35.9374 35.42 35.9374 38.3333C35.9374 41.2467 33.5799 43.6042 30.6666 43.6042ZM30.6666 35.9375C29.3441 35.9375 28.2708 37.0108 28.2708 38.3333C28.2708 39.6558 29.3441 40.7292 30.6666 40.7292C31.9891 40.7292 33.0624 39.6558 33.0624 38.3333C33.0624 37.0108 31.9891 35.9375 30.6666 35.9375Z" fill="#EA5B0C"/>
<path d="M42.1667 28.2708H36.4167C34.5767 28.2708 33.0625 26.7567 33.0625 24.9167V19.1667C33.0625 17.3267 34.5767 15.8125 36.4167 15.8125H38.8891C39.4066 15.8125 39.8858 16.0808 40.135 16.5408L43.4125 22.2908C43.5275 22.5017 43.6042 22.7508 43.6042 23V26.8333C43.6042 27.6192 42.9525 28.2708 42.1667 28.2708ZM36.4167 18.6875C36.1483 18.6875 35.9375 18.8983 35.9375 19.1667V24.9167C35.9375 25.185 36.1483 25.3958 36.4167 25.3958H40.7292V23.3834L38.0458 18.6875H36.4167Z" fill="#EA5B0C"/>
<path d="M15.3333 16.7708H3.83325C3.04742 16.7708 2.39575 16.1191 2.39575 15.3333C2.39575 14.5475 3.04742 13.8958 3.83325 13.8958H15.3333C16.1191 13.8958 16.7708 14.5475 16.7708 15.3333C16.7708 16.1191 16.1191 16.7708 15.3333 16.7708Z" fill="#EA5B0C"/>
<path d="M11.4999 22.5208H3.83325C3.04742 22.5208 2.39575 21.8691 2.39575 21.0833C2.39575 20.2975 3.04742 19.6458 3.83325 19.6458H11.4999C12.2858 19.6458 12.9374 20.2975 12.9374 21.0833C12.9374 21.8691 12.2858 22.5208 11.4999 22.5208Z" fill="#EA5B0C"/>
<path d="M7.66659 28.2708H3.83325C3.04742 28.2708 2.39575 27.6191 2.39575 26.8333C2.39575 26.0475 3.04742 25.3958 3.83325 25.3958H7.66659C8.45242 25.3958 9.10409 26.0475 9.10409 26.8333C9.10409 27.6191 8.45242 28.2708 7.66659 28.2708Z" fill="#EA5B0C"/>
</svg>
