<svg width="36" height="39" viewBox="0 0 36 39" fill="none" xmlns="http://www.w3.org/2000/svg">
<path d="M16.2591 0.410011C15.0896 0.628083 13.7156 1.09897 11.6043 1.82266L10.4985 2.19898C4.69548 4.18672 1.79492 5.17865 1.06737 6.21691C0.353329 7.23201 0.337891 10.2078 0.337891 16.1132L16.2591 10.8061V0.410011ZM16.2591 13.8552L0.337891 19.1623V19.5502C0.337891 30.4307 8.5185 35.7107 13.6519 37.9532C14.6361 38.3835 15.273 38.6614 16.2591 38.7869V13.8552ZM19.1539 38.7888V13.8552L35.0751 19.1623V19.5502C35.0751 30.4307 26.8945 35.7107 21.7611 37.9532C20.7769 38.3835 20.14 38.6634 19.1539 38.7888ZM19.1539 10.8061V0.408081C20.3234 0.626153 21.6974 1.09704 23.8086 1.82073L24.9144 2.19898C30.7175 4.18479 33.618 5.17672 34.3456 6.21498C35.0596 7.23008 35.0751 10.2059 35.0751 16.1093L19.1539 10.8061Z" fill="#EA5B0C"/>
</svg>
