<svg width="15" height="17" viewBox="0 0 15 17" fill="none" xmlns="http://www.w3.org/2000/svg">
<path d="M8.46001 7.42689L4.2097 1.46793C4.1604 1.3987 4.09527 1.34227 4.01972 1.30334C3.94418 1.2644 3.86041 1.24411 3.77543 1.24414H1.53216C1.43438 1.24427 1.33853 1.27129 1.25509 1.32226C1.17164 1.37323 1.10384 1.44617 1.05909 1.53311C1.01433 1.62004 0.994367 1.71761 1.00137 1.81514C1.00837 1.91266 1.04207 2.00638 1.09878 2.08603L6.53999 9.71457M8.46001 7.42689L13.9012 15.0554C13.9579 15.1351 13.9916 15.2288 13.9986 15.3263C14.0056 15.4238 13.9857 15.5214 13.9409 15.6084C13.8962 15.6953 13.8284 15.7682 13.7449 15.8192C13.6615 15.8702 13.5656 15.8972 13.4678 15.8973H11.2246C11.1396 15.8974 11.0558 15.8771 10.9803 15.8381C10.9047 15.7992 10.8396 15.7428 10.7903 15.6735L6.53999 9.71457M8.46001 7.42689L13.6481 1.24414M6.53999 9.71457L1.35188 15.8973" stroke="white" stroke-linecap="round" stroke-linejoin="round"/>
</svg>
