<svg width="22" height="17" viewBox="0 0 22 17" fill="none" xmlns="http://www.w3.org/2000/svg">
<path d="M13 8.5708L9.5 10.5708V6.5708L13 8.5708Z" fill="white" stroke="white" stroke-linecap="round" stroke-linejoin="round"/>
<path d="M1 9.2787V7.8627C1 4.9677 1 3.5197 1.905 2.5887C2.811 1.6567 4.237 1.6167 7.088 1.5357C8.438 1.4977 9.818 1.4707 11 1.4707C12.182 1.4707 13.561 1.4977 14.912 1.5357C17.763 1.6167 19.189 1.6567 20.094 2.5887C20.999 3.5207 21 4.9687 21 7.8627V9.2777C21 12.1737 21 13.6207 20.095 14.5527C19.189 15.4837 17.764 15.5247 14.912 15.6047C13.562 15.6437 12.182 15.6707 11 15.6707C9.818 15.6707 8.439 15.6437 7.088 15.6047C4.237 15.5247 2.811 15.4847 1.905 14.5527C0.999 13.6207 1 12.1727 1 9.2787Z" stroke="white"/>
</svg>
