<svg width="26" height="31" viewBox="0 0 26 31" fill="none" xmlns="http://www.w3.org/2000/svg">
<path d="M21.4168 29.4265C19.7834 31.0098 18.0001 30.7598 16.2834 30.0098C14.4668 29.2431 12.8001 29.2098 10.8834 30.0098C8.48344 31.0431 7.21678 30.7431 5.78344 29.4265C-2.34989 21.0431 -1.14989 8.27646 8.08344 7.8098C10.3334 7.92646 11.9001 9.04313 13.2168 9.14313C15.1834 8.74313 17.0668 7.59313 19.1668 7.74313C21.6834 7.94313 23.5834 8.94313 24.8334 10.7431C19.6334 13.8598 20.8668 20.7098 25.6334 22.6265C24.6834 25.1265 23.4501 27.6098 21.4001 29.4431L21.4168 29.4265ZM13.0501 7.7098C12.8001 3.99313 15.8168 0.926465 19.2834 0.626465C19.7668 4.92646 15.3834 8.12646 13.0501 7.7098Z" fill="white"/>
</svg>
