<svg width="7" height="14" viewBox="0 0 7 14" fill="none" xmlns="http://www.w3.org/2000/svg">
<path d="M4.25 3.5458V5.7208H6.2C6.35 5.7208 6.425 5.8708 6.425 6.0208L6.125 7.4458C6.125 7.5208 5.975 7.5958 5.9 7.5958H4.25V13.0708H2V7.6708H0.725C0.575 7.6708 0.5 7.5958 0.5 7.4458V6.0208C0.5 5.8708 0.575 5.7958 0.725 5.7958H2V3.3208C2 2.0458 2.975 1.0708 4.25 1.0708H6.275C6.425 1.0708 6.5 1.1458 6.5 1.2958V3.0958C6.5 3.2458 6.425 3.3208 6.275 3.3208H4.475C4.325 3.3208 4.25 3.3958 4.25 3.5458Z" stroke="white" stroke-miterlimit="10" stroke-linecap="round"/>
</svg>
