<svg width="21" height="16" viewBox="0 0 21 16" fill="none" xmlns="http://www.w3.org/2000/svg">
<path d="M13.1221 6.775L9.45408 4.663C9.23872 4.53901 8.99454 4.47384 8.74604 4.47402C8.49753 4.47421 8.25345 4.53974 8.03827 4.66404C7.82309 4.78835 7.64439 4.96705 7.52009 5.18223C7.39579 5.39741 7.33026 5.6415 7.33008 5.89V10.112C7.32708 10.618 7.59708 11.086 8.03608 11.336C8.25132 11.4617 8.49604 11.5282 8.74531 11.5285C8.99458 11.5289 9.23949 11.4631 9.45508 11.338L13.1221 9.226C13.3375 9.10216 13.5164 8.92371 13.6409 8.70863C13.7653 8.49356 13.8308 8.24948 13.8308 8.001C13.8308 7.75252 13.7653 7.50844 13.6409 7.29337C13.5164 7.0783 13.3375 6.89984 13.1221 6.776M12.6221 8.358L8.95608 10.471C8.89269 10.5087 8.82032 10.5286 8.74658 10.5286C8.67284 10.5286 8.60046 10.5087 8.53708 10.471C8.4735 10.4348 8.42077 10.3822 8.38437 10.3187C8.34797 10.2552 8.32923 10.1832 8.33008 10.11V5.89C8.32958 5.81717 8.3485 5.74552 8.38488 5.68242C8.42126 5.61933 8.4738 5.56706 8.53708 5.531C8.59998 5.49246 8.67231 5.47206 8.74608 5.47206C8.81985 5.47206 8.89218 5.49246 8.95508 5.531L12.6221 7.644C12.6853 7.67972 12.7379 7.73159 12.7746 7.79432C12.8112 7.85704 12.8305 7.92837 12.8305 8.001C12.8305 8.07363 12.8112 8.14496 12.7746 8.20768C12.7379 8.27041 12.6853 8.32228 12.6221 8.358ZM17.3301 0H3.33008C2.53467 0.000794215 1.77207 0.31712 1.20964 0.879557C0.647198 1.44199 0.330872 2.20459 0.330078 3V13C0.330872 13.7954 0.647198 14.558 1.20964 15.1204C1.77207 15.6829 2.53467 15.9992 3.33008 16H17.3301C18.1255 15.9992 18.8881 15.6829 19.4505 15.1204C20.013 14.558 20.3293 13.7954 20.3301 13V3C20.3293 2.20459 20.013 1.44199 19.4505 0.879557C18.8881 0.31712 18.1255 0.000794215 17.3301 0ZM19.3301 13C19.3293 13.5302 19.1183 14.0384 18.7434 14.4133C18.3685 14.7882 17.8603 14.9992 17.3301 15H3.33008C2.79989 14.9992 2.29164 14.7882 1.91674 14.4133C1.54184 14.0384 1.33087 13.5302 1.33008 13V3C1.33087 2.46981 1.54184 1.96156 1.91674 1.58666C2.29164 1.21176 2.79989 1.00079 3.33008 1H17.3301C17.8603 1.00079 18.3685 1.21176 18.7434 1.58666C19.1183 1.96156 19.3293 2.46981 19.3301 3V13Z" fill="white"/>
</svg>
