<svg width="28" height="29" viewBox="0 0 28 29" fill="none" xmlns="http://www.w3.org/2000/svg">
<path d="M20.3583 27.0416C19.04 27.0416 17.6516 26.7266 16.2166 26.12C14.8166 25.525 13.405 24.7083 12.0283 23.7166C10.6633 22.7133 9.34498 21.5933 8.09665 20.3683C6.85998 19.12 5.73998 17.8016 4.74831 16.4483C3.74498 15.0483 2.93998 13.6483 2.36831 12.295C1.76165 10.8483 1.45831 9.44831 1.45831 8.12998C1.45831 7.21998 1.62165 6.35665 1.93665 5.55165C2.26331 4.72331 2.78831 3.95331 3.49998 3.28831C4.39831 2.40165 5.42498 1.95831 6.52165 1.95831C6.97665 1.95831 7.44331 2.06331 7.83998 2.24998C8.29498 2.45998 8.67998 2.77498 8.95998 3.19498L11.6666 7.00998C11.9116 7.34831 12.0983 7.67498 12.2266 8.00165C12.3783 8.35165 12.46 8.70165 12.46 9.03998C12.46 9.48331 12.3316 9.91498 12.0866 10.3233C11.9116 10.6383 11.6433 10.9766 11.305 11.315L10.5116 12.1433C10.5233 12.1783 10.535 12.2016 10.5466 12.225C10.6866 12.47 10.9666 12.89 11.5033 13.52C12.075 14.1733 12.6116 14.7683 13.1483 15.3166C13.8366 15.9933 14.4083 16.53 14.945 16.9733C15.61 17.5333 16.0416 17.8133 16.2983 17.9416L16.275 18L17.1266 17.16C17.4883 16.7983 17.8383 16.53 18.1766 16.355C18.8183 15.9583 19.635 15.8883 20.4516 16.2266C20.755 16.355 21.0816 16.53 21.4316 16.775L25.305 19.5283C25.7366 19.82 26.0516 20.1933 26.2383 20.6366C26.4133 21.08 26.495 21.4883 26.495 21.8966C26.495 22.4566 26.3666 23.0166 26.1216 23.5416C25.8766 24.0666 25.5733 24.5216 25.1883 24.9416C24.5233 25.6766 23.8 26.2016 22.96 26.54C22.155 26.8666 21.28 27.0416 20.3583 27.0416ZM6.52165 3.70831C5.87998 3.70831 5.28498 3.98831 4.71331 4.54831C4.17665 5.04998 3.80331 5.59831 3.56998 6.19331C3.32498 6.79998 3.20831 7.44165 3.20831 8.12998C3.20831 9.21498 3.46498 10.3933 3.97831 11.6066C4.50331 12.8433 5.23831 14.1266 6.17165 15.41C7.10498 16.6933 8.16665 17.9416 9.33331 19.12C10.5 20.275 11.76 21.3483 13.055 22.2933C14.315 23.215 15.61 23.9616 16.8933 24.4983C18.8883 25.35 20.755 25.5483 22.295 24.9066C22.89 24.6616 23.415 24.2883 23.8933 23.7516C24.1616 23.46 24.3716 23.145 24.5466 22.7716C24.6866 22.48 24.7566 22.1766 24.7566 21.8733C24.7566 21.6866 24.7216 21.5 24.6283 21.29C24.5933 21.22 24.5233 21.0916 24.3016 20.94L20.4283 18.1866C20.195 18.0233 19.985 17.9066 19.7866 17.825C19.53 17.72 19.425 17.615 19.0283 17.86C18.795 17.9766 18.585 18.1516 18.3516 18.385L17.465 19.26C17.01 19.7033 16.31 19.8083 15.7733 19.61L15.4583 19.47C14.98 19.2133 14.42 18.8166 13.8016 18.2916C13.2416 17.8133 12.635 17.2533 11.9 16.53C11.3283 15.9466 10.7566 15.3283 10.1616 14.64C9.61331 13.9983 9.21665 13.45 8.97165 12.995L8.83165 12.645C8.76165 12.3766 8.73831 12.225 8.73831 12.0616C8.73831 11.6416 8.88998 11.2683 9.18165 10.9766L10.0566 10.0666C10.29 9.83331 10.465 9.61165 10.5816 9.41331C10.675 9.26165 10.71 9.13331 10.71 9.01665C10.71 8.92331 10.675 8.78331 10.6166 8.64331C10.535 8.45665 10.4066 8.24665 10.2433 8.02498L7.53665 4.19831C7.41998 4.03498 7.27998 3.91831 7.10498 3.83665C6.91831 3.75498 6.71998 3.70831 6.52165 3.70831ZM16.275 18.0116L16.0883 18.805L16.4033 17.9883C16.345 17.9766 16.2983 17.9883 16.275 18.0116Z" fill="#EA5B0C"/>
<path d="M21.5833 11.875C21.105 11.875 20.7083 11.4784 20.7083 11C20.7083 10.58 20.2883 9.70502 19.5883 8.95835C18.9 8.22335 18.1417 7.79169 17.5 7.79169C17.0217 7.79169 16.625 7.39502 16.625 6.91669C16.625 6.43835 17.0217 6.04169 17.5 6.04169C18.6317 6.04169 19.8217 6.64835 20.86 7.75669C21.8283 8.79502 22.4583 10.0667 22.4583 11C22.4583 11.4784 22.0617 11.875 21.5833 11.875Z" fill="#EA5B0C"/>
<path d="M25.6667 11.875C25.1883 11.875 24.7917 11.4783 24.7917 11C24.7917 6.97498 21.525 3.70831 17.5 3.70831C17.0217 3.70831 16.625 3.31165 16.625 2.83331C16.625 2.35498 17.0217 1.95831 17.5 1.95831C22.4817 1.95831 26.5417 6.01831 26.5417 11C26.5417 11.4783 26.145 11.875 25.6667 11.875Z" fill="#EA5B0C"/>
</svg>
