<svg width="28" height="29" viewBox="0 0 28 29" fill="none" xmlns="http://www.w3.org/2000/svg">
<path d="M14 27.0416C7.08165 27.0416 1.45831 21.4183 1.45831 14.5C1.45831 7.58165 7.08165 1.95831 14 1.95831C20.9183 1.95831 26.5416 7.58165 26.5416 14.5C26.5416 21.4183 20.9183 27.0416 14 27.0416ZM14 3.70831C8.04998 3.70831 3.20831 8.54998 3.20831 14.5C3.20831 20.45 8.04998 25.2916 14 25.2916C19.95 25.2916 24.7916 20.45 24.7916 14.5C24.7916 8.54998 19.95 3.70831 14 3.70831Z" fill="#EA5B0C"/>
<path d="M18.3284 19.085C18.1767 19.085 18.025 19.05 17.885 18.9567L14.2683 16.7983C13.37 16.2617 12.705 15.0833 12.705 14.045V9.26166C12.705 8.78332 13.1017 8.38666 13.58 8.38666C14.0584 8.38666 14.455 8.78332 14.455 9.26166V14.045C14.455 14.465 14.805 15.0833 15.1667 15.2933L18.7834 17.4517C19.2034 17.6967 19.3317 18.2333 19.0867 18.6533C18.9117 18.9333 18.62 19.085 18.3284 19.085Z" fill="#EA5B0C"/>
</svg>
