<svg width="28" height="29" viewBox="0 0 28 29" fill="none" xmlns="http://www.w3.org/2000/svg">
<path d="M19.8334 25.2916H8.16671C3.90837 25.2916 1.45837 22.8416 1.45837 18.5833V10.4166C1.45837 6.15831 3.90837 3.70831 8.16671 3.70831H19.8334C24.0917 3.70831 26.5417 6.15831 26.5417 10.4166V18.5833C26.5417 22.8416 24.0917 25.2916 19.8334 25.2916ZM8.16671 5.45831C4.83004 5.45831 3.20837 7.07998 3.20837 10.4166V18.5833C3.20837 21.92 4.83004 23.5416 8.16671 23.5416H19.8334C23.17 23.5416 24.7917 21.92 24.7917 18.5833V10.4166C24.7917 7.07998 23.17 5.45831 19.8334 5.45831H8.16671Z" fill="#EA5B0C"/>
<path d="M13.9998 15.515C13.0198 15.515 12.0281 15.2116 11.2698 14.5933L7.61809 11.6766C7.24476 11.3733 7.17477 10.825 7.4781 10.4516C7.78143 10.0783 8.32977 10.0083 8.7031 10.3116L12.3548 13.2283C13.2414 13.94 14.7464 13.94 15.6331 13.2283L19.2848 10.3116C19.6581 10.0083 20.2181 10.0666 20.5098 10.4516C20.8131 10.825 20.7548 11.385 20.3698 11.6766L16.7181 14.5933C15.9714 15.2116 14.9798 15.515 13.9998 15.515Z" fill="#EA5B0C"/>
</svg>
